<svg width="845" height="254" viewBox="0 0 845 254" fill="none" xmlns="http://www.w3.org/2000/svg">
<path d="M845 154C845 209.228 800.228 254 745 254H0V100C0 44.7715 44.7715 0 100 0H845V154Z" fill="white"/>
<path d="M323.006 76.75H369.655C378.89 76.75 385.776 77.1346 390.314 77.901C394.852 78.6673 398.912 80.2714 402.494 82.7046C406.076 85.1406 409.063 88.3818 411.451 92.431C413.84 96.4802 415.033 101.018 415.033 106.049C415.033 111.502 413.562 116.503 410.614 121.056C407.669 125.609 403.675 129.023 398.634 131.298C405.747 133.361 411.212 136.883 415.033 141.859C418.854 146.836 420.764 152.686 420.764 159.407C420.764 164.7 419.53 169.846 417.063 174.85C414.594 179.853 411.224 183.848 406.952 186.839C402.68 189.83 397.412 191.67 391.151 192.358C387.223 192.782 377.748 193.047 362.731 193.151H351.471C335.751 193.151 323.006 180.44 323.006 164.762V76.75ZM346.571 96.1224V123.039H362.016C371.198 123.039 376.902 122.907 379.132 122.642C383.166 122.165 386.338 120.776 388.646 118.474C390.954 116.172 392.108 113.142 392.108 109.382C392.108 105.622 391.112 102.858 389.124 100.61C387.133 98.3617 384.173 96.9991 380.248 96.522C377.913 96.2596 371.198 96.1254 360.106 96.1254H346.571V96.1224ZM346.571 142.408V159.529C346.571 167.264 352.859 173.532 360.611 173.532H368.384C376.875 173.532 382.263 173.293 384.544 172.819C388.048 172.184 390.9 170.636 393.103 168.173C395.304 165.713 396.407 162.419 396.407 158.289C396.407 154.794 395.558 151.83 393.86 149.397C392.159 146.964 389.707 145.19 386.496 144.078C383.285 142.966 376.319 142.411 365.598 142.411H346.571V142.408Z" fill="black"/>
<path d="M482.272 167.996L504.564 171.726C501.696 179.878 497.173 186.083 490.99 190.344C484.807 194.605 477.073 196.737 467.784 196.737C453.083 196.737 442.204 191.945 435.145 182.365C429.572 174.69 426.786 165.005 426.786 153.305C426.786 139.329 430.448 128.386 437.773 120.476C445.098 112.562 454.357 108.605 465.557 108.605C478.134 108.605 488.057 112.747 495.328 121.03C502.599 129.314 506.076 142.004 505.759 159.101H449.714C449.872 165.718 451.678 170.864 455.128 174.544C458.579 178.223 462.878 180.06 468.023 180.06C471.527 180.06 474.472 179.109 476.861 177.204C479.25 175.298 481.052 172.23 482.275 167.993L482.272 167.996ZM483.546 145.448C483.387 138.989 481.716 134.082 478.532 130.718C475.348 127.358 471.473 125.676 466.911 125.676C462.026 125.676 457.996 127.45 454.811 130.995C451.627 134.544 450.061 139.359 450.115 145.445H483.549L483.546 145.448Z" fill="black"/>
<path d="M516.274 97.3927V76.75H538.644V97.3927H516.274ZM516.274 193.143V131.134C516.274 118.814 526.29 108.825 538.644 108.825V193.143H516.274Z" fill="black"/>
<path d="M546.904 149.79C546.904 142.38 548.734 135.209 552.396 128.273C556.059 121.341 561.246 116.045 567.961 112.395C574.676 108.743 582.171 106.918 590.45 106.918C603.24 106.918 613.722 111.06 621.893 119.343C630.066 127.626 634.153 138.095 634.153 150.744C634.153 163.392 630.028 174.073 621.776 182.461C613.521 190.851 603.132 195.047 590.608 195.047C582.859 195.047 575.468 193.299 568.439 189.805C561.404 186.31 556.059 181.19 552.396 174.44C548.734 167.692 546.904 159.474 546.904 149.787V149.79ZM569.832 150.982C569.832 159.346 571.821 165.751 575.803 170.197C579.782 174.642 584.691 176.867 590.53 176.867C596.369 176.867 601.263 174.645 605.219 170.197C609.171 165.751 611.15 159.292 611.15 150.824C611.15 142.356 609.174 136.217 605.219 131.768C601.263 127.322 596.369 125.098 590.53 125.098C584.691 125.098 579.785 127.322 575.803 131.768C571.821 136.214 569.832 142.618 569.832 150.982Z" fill="black"/>
<path d="M642.417 193.143V76.75C656.663 76.75 669.884 84.1328 677.325 96.2477L713.109 154.478V76.75H735V192.43C735 192.824 734.68 193.143 734.285 193.143C720.033 193.143 706.795 185.784 699.3 173.693L664.308 117.239V193.143H642.417Z" fill="black"/>
<path d="M275.563 190.207L259.21 191.263C256.813 191.417 254.736 189.522 254.575 187.028L251.564 140.669C251.403 138.175 253.215 136.028 255.614 135.872L271.967 134.815C274.364 134.661 276.441 136.557 276.602 139.051L279.613 185.41C279.774 187.904 277.962 190.05 275.563 190.207Z" fill="url(#paint0_linear_709_84)"/>
<path d="M275.762 190.072L259.408 191.129C257.011 191.283 254.934 189.387 254.773 186.893L251.763 140.534C251.602 138.04 253.414 135.894 255.813 135.737L272.166 134.681C274.563 134.527 276.64 136.422 276.801 138.916L279.812 185.275C279.973 187.769 278.161 189.916 275.762 190.072Z" fill="url(#paint1_linear_709_84)"/>
<path d="M275.96 189.939L259.607 190.996C257.21 191.15 255.133 189.255 254.972 186.761L251.961 140.401C251.8 137.907 253.612 135.761 256.012 135.604L272.365 134.548C274.762 134.394 276.839 136.289 277 138.783L280.01 185.143C280.171 187.637 278.359 189.783 275.96 189.939Z" fill="url(#paint2_linear_709_84)"/>
<path d="M276.161 189.81L259.808 190.867C257.411 191.021 255.334 189.126 255.173 186.632L252.162 140.272C252.001 137.778 253.813 135.632 256.212 135.476L272.565 134.419C274.962 134.265 277.039 136.16 277.201 138.654L280.211 185.014C280.372 187.508 278.56 189.654 276.161 189.81Z" fill="url(#paint3_linear_709_84)"/>
<path d="M276.36 189.678L260.007 190.734C257.61 190.888 255.533 188.993 255.372 186.499L252.361 140.139C252.2 137.645 254.012 135.499 256.411 135.343L272.764 134.286C275.161 134.132 277.238 136.027 277.399 138.521L280.41 184.881C280.571 187.375 278.759 189.521 276.36 189.678Z" fill="url(#paint4_linear_709_84)"/>
<path d="M276.558 189.547L260.205 190.603C257.808 190.757 255.731 188.862 255.57 186.368L252.559 140.009C252.398 137.514 254.21 135.368 256.61 135.212L272.963 134.155C275.36 134.001 277.437 135.896 277.598 138.391L280.609 184.75C280.77 187.244 278.958 189.39 276.558 189.547Z" fill="url(#paint5_linear_709_84)"/>
<path d="M276.757 189.414L260.404 190.47C258.007 190.625 255.93 188.729 255.769 186.235L252.758 139.876C252.597 137.382 254.409 135.235 256.808 135.079L273.161 134.022C275.558 133.868 277.635 135.764 277.797 138.258L280.807 184.617C280.968 187.111 279.156 189.258 276.757 189.414Z" fill="url(#paint6_linear_709_84)"/>
<path d="M276.956 189.281L260.602 190.338C258.205 190.492 256.128 188.596 255.967 186.102L252.957 139.743C252.796 137.249 254.608 135.103 257.007 134.946L273.36 133.89C275.757 133.736 277.834 135.631 277.995 138.125L281.006 184.484C281.167 186.978 279.355 189.125 276.956 189.281Z" fill="url(#paint7_linear_709_84)"/>
<path d="M277.154 189.148L260.801 190.205C258.404 190.359 256.327 188.464 256.166 185.97L253.155 139.61C252.994 137.116 254.806 134.97 257.206 134.813L273.559 133.757C275.956 133.603 278.033 135.498 278.194 137.992L281.204 184.352C281.366 186.846 279.553 188.992 277.154 189.148Z" fill="url(#paint8_linear_709_84)"/>
<path d="M277.353 189.017L261 190.074C258.603 190.228 256.526 188.333 256.365 185.839L253.354 139.479C253.193 136.985 255.005 134.839 257.404 134.683L273.757 133.626C276.154 133.472 278.231 135.367 278.392 137.861L281.403 184.221C281.564 186.715 279.752 188.861 277.353 189.017Z" fill="url(#paint9_linear_709_84)"/>
<path d="M277.552 188.885L261.198 189.941C258.801 190.095 256.724 188.2 256.563 185.706L253.553 139.346C253.392 136.852 255.204 134.706 257.603 134.55L273.956 133.493C276.353 133.339 278.43 135.234 278.591 137.728L281.602 184.088C281.763 186.582 279.951 188.728 277.552 188.885Z" fill="url(#paint10_linear_709_84)"/>
<path d="M277.75 188.754L261.397 189.81C259 189.964 256.923 188.069 256.762 185.575L253.751 139.216C253.59 136.721 255.402 134.575 257.802 134.419L274.155 133.362C276.552 133.208 278.629 135.104 278.79 137.598L281.8 183.957C281.962 186.451 280.149 188.597 277.75 188.754Z" fill="url(#paint11_linear_709_84)"/>
<path d="M277.951 188.619L261.598 189.676C259.201 189.83 257.124 187.934 256.963 185.44L253.952 139.081C253.791 136.587 255.603 134.44 258.002 134.284L274.355 133.228C276.752 133.073 278.829 134.969 278.991 137.463L282.001 183.822C282.162 186.316 280.35 188.463 277.951 188.619Z" fill="url(#paint12_linear_709_84)"/>
<path d="M278.15 188.486L261.797 189.543C259.4 189.697 257.323 187.801 257.162 185.307L254.151 138.948C253.99 136.454 255.802 134.308 258.201 134.151L274.554 133.095C276.951 132.941 279.028 134.836 279.189 137.33L282.2 183.689C282.361 186.184 280.549 188.33 278.15 188.486Z" fill="url(#paint13_linear_709_84)"/>
<path d="M278.348 188.355L261.995 189.412C259.598 189.566 257.521 187.671 257.36 185.177L254.35 138.817C254.188 136.323 256.001 134.177 258.4 134.02L274.753 132.964C277.15 132.81 279.227 134.705 279.388 137.199L282.399 183.559C282.56 186.053 280.748 188.199 278.348 188.355Z" fill="url(#paint14_linear_709_84)"/>
<path d="M278.547 188.222L262.194 189.279C259.797 189.433 257.72 187.538 257.559 185.044L254.548 138.684C254.387 136.19 256.199 134.044 258.598 133.888L274.951 132.831C277.348 132.677 279.425 134.572 279.587 137.066L282.597 183.426C282.758 185.92 280.946 188.066 278.547 188.222Z" fill="url(#paint15_linear_709_84)"/>
<path d="M278.746 188.092L262.393 189.148C259.996 189.302 257.919 187.407 257.758 184.913L254.747 138.553C254.586 136.059 256.398 133.913 258.797 133.757L275.15 132.7C277.547 132.546 279.624 134.441 279.785 136.935L282.796 183.295C282.957 185.789 281.145 187.935 278.746 188.092Z" fill="url(#paint16_linear_709_84)"/>
<path d="M278.944 187.959L262.591 189.015C260.194 189.169 258.117 187.274 257.956 184.78L254.945 138.421C254.784 135.927 256.596 133.78 258.996 133.624L275.349 132.567C277.746 132.413 279.823 134.309 279.984 136.803L282.994 183.162C283.156 185.656 281.343 187.802 278.944 187.959Z" fill="url(#paint17_linear_709_84)"/>
<path d="M279.143 187.826L262.79 188.883C260.393 189.037 258.316 187.141 258.155 184.647L255.144 138.288C254.983 135.794 256.795 133.647 259.194 133.491L275.547 132.435C277.944 132.28 280.021 134.176 280.183 136.67L283.193 183.029C283.354 185.523 281.542 187.67 279.143 187.826Z" fill="url(#paint18_linear_709_84)"/>
<path d="M279.342 187.693L262.989 188.75C260.591 188.904 258.515 187.009 258.353 184.514L255.343 138.155C255.182 135.661 256.994 133.515 259.393 133.358L275.746 132.302C278.143 132.148 280.22 134.043 280.381 136.537L283.392 182.896C283.553 185.391 281.741 187.537 279.342 187.693Z" fill="url(#paint19_linear_709_84)"/>
<path d="M279.54 187.562L263.187 188.619C260.79 188.773 258.713 186.878 258.552 184.384L255.541 138.024C255.38 135.53 257.192 133.384 259.592 133.228L275.945 132.171C278.342 132.017 280.419 133.912 280.58 136.406L283.59 182.766C283.751 185.26 281.939 187.406 279.54 187.562Z" fill="url(#paint20_linear_709_84)"/>
<path d="M279.739 187.431L263.386 188.488C260.989 188.642 258.912 186.747 258.751 184.253L255.74 137.893C255.579 135.399 257.391 133.253 259.79 133.097L276.143 132.04C278.54 131.886 280.617 133.781 280.779 136.275L283.789 182.635C283.95 185.129 282.138 187.275 279.739 187.431Z" fill="url(#paint21_linear_709_84)"/>
<path d="M279.94 187.299L263.587 188.355C261.19 188.509 259.113 186.614 258.952 184.12L255.941 137.76C255.78 135.266 257.592 133.12 259.991 132.964L276.344 131.907C278.741 131.753 280.818 133.648 280.979 136.143L283.99 182.502C284.151 184.996 282.339 187.142 279.94 187.299Z" fill="url(#paint22_linear_709_84)"/>
<path d="M207.665 61.4952C205.127 55.151 198.706 50.8497 191.511 51.3164C184.315 51.7808 178.506 56.8725 176.809 63.4896L177.475 73.7498C173.754 73.9237 166.377 74.1945 166.377 74.1945L166.053 69.2064C165.108 54.6293 176.23 42.0005 190.846 41.0561C205.462 40.1117 218.125 51.2041 219.07 65.7811L219.394 70.7693L214.404 71.2315C214.357 71.236 212.044 71.4495 208.332 71.7533L207.665 61.493V61.4952Z" fill="#3D3D3D"/>
<path d="M209.724 71.6387L209.06 61.4048C206.522 55.0607 200.101 50.7593 192.906 51.226C192.672 51.2414 192.442 51.2744 192.21 51.2986C199.119 51.1467 204.2 55.4239 206.654 61.5611L208.332 71.7553C208.822 71.7157 209.285 71.6761 209.724 71.6387Z" fill="black"/>
<path d="M190.846 41.0558C176.23 42.0002 165.108 54.6269 166.055 69.2039L166.38 74.192C166.38 74.192 173.754 73.9213 177.477 73.7474L177.424 72.9483C173.732 73.1134 167.642 73.3357 167.642 73.3357L167.671 68.5743C166.772 54.7193 177.005 42.7398 190.897 41.8417C204.789 40.9436 216.823 51.4878 217.723 65.3406L218.03 70.0822L213.287 70.5225C213.245 70.5247 211.358 70.7008 208.279 70.9561L208.33 71.7552C212.044 71.4492 214.355 71.2357 214.402 71.2335L219.392 70.7712L219.068 65.7831C218.123 51.206 205.462 40.1137 190.846 41.0558Z" fill="url(#paint23_linear_709_84)"/>
<path d="M271.548 152.206C270.681 138.721 267.123 128.542 260.971 121.958C260.971 121.958 260.971 121.958 260.969 121.956C258.771 119.605 256.362 117.531 253.78 115.763C254.804 111.169 255.146 106.108 254.795 100.658C253.917 86.9923 249.679 76.6748 242.201 69.9938C234.703 63.3085 224.925 60.3103 213.137 61.0785L154.121 64.9242C152.521 65.0277 150.397 65.1686 148.918 65.6198C148.656 65.6881 148.395 65.7563 148.137 65.8334C147.874 65.9016 147.614 65.9698 147.356 66.0469C147.093 66.1151 146.833 66.1834 146.574 66.2604C146.312 66.3287 146.051 66.3969 145.793 66.4739C145.53 66.5422 145.268 66.6104 145.009 66.6875C144.747 66.7557 144.486 66.824 144.228 66.901C143.965 66.9692 143.705 67.0375 143.447 67.1145C143.184 67.1828 142.924 67.251 142.665 67.328C142.403 67.3963 142.142 67.4645 141.884 67.5416C141.621 67.6098 141.361 67.6781 141.103 67.7551C140.84 67.8233 140.58 67.8916 140.321 67.9686C140.059 68.0369 139.796 68.1051 139.538 68.1822C139.275 68.2504 139.015 68.3186 138.757 68.3957C138.494 68.4639 138.233 68.5322 137.975 68.6092C137.713 68.6774 137.45 68.7457 137.194 68.8227C136.931 68.891 136.671 68.9592 136.412 69.0363C136.15 69.1045 135.889 69.1727 135.631 69.2498C135.368 69.318 135.108 69.3863 134.85 69.4633C134.587 69.5316 134.324 69.5998 134.066 69.6768C133.804 69.7451 133.543 69.8133 133.285 69.8904C133.022 69.9586 132.762 70.0268 132.504 70.1039C122.536 72.708 116.033 82.7658 116.76 94.0519L123.021 191.363C123.838 204.055 134.764 213.71 147.378 212.889L151.296 212.634C154.562 212.42 157.774 211.846 160.886 210.945C161.146 210.875 161.409 210.807 161.667 210.732C161.928 210.661 162.19 210.593 162.449 210.518C162.709 210.448 162.972 210.38 163.23 210.305C163.49 210.234 163.753 210.166 164.011 210.091C164.272 210.021 164.534 209.953 164.795 209.876C165.055 209.805 165.316 209.737 165.576 209.662C165.837 209.592 166.099 209.523 166.357 209.449C166.618 209.378 166.881 209.31 167.139 209.235C167.399 209.165 167.662 209.096 167.92 209.021C168.181 208.951 168.443 208.883 168.702 208.808C168.962 208.738 169.225 208.669 169.485 208.592C169.746 208.522 170.006 208.454 170.266 208.379C170.527 208.308 170.79 208.24 171.048 208.165C171.308 208.095 171.571 208.026 171.829 207.952C172.09 207.881 172.352 207.813 172.61 207.738C172.871 207.668 173.134 207.599 173.392 207.525C173.652 207.454 173.915 207.386 174.173 207.311C174.434 207.241 174.696 207.172 174.957 207.095C175.217 207.025 175.478 206.957 175.738 206.882C175.999 206.811 176.261 206.743 176.519 206.668C176.78 206.598 177.043 206.53 177.301 206.455C181.585 205.299 185.686 203.518 189.473 201.147L191.762 202.27C202.132 207.353 213.598 208.282 223.972 205.345C224.235 205.277 224.493 205.204 224.753 205.132C225.016 205.064 225.274 204.991 225.535 204.918C225.795 204.85 226.055 204.777 226.316 204.705C226.579 204.636 226.839 204.564 227.099 204.489C227.36 204.421 227.62 204.348 227.881 204.275C228.141 204.207 228.402 204.135 228.662 204.062C228.925 203.994 229.183 203.921 229.444 203.848C229.706 203.78 229.964 203.708 230.225 203.635C230.488 203.567 230.746 203.494 231.006 203.421C231.267 203.353 231.527 203.28 231.788 203.208C232.05 203.14 232.311 203.067 232.571 202.992C232.832 202.924 233.092 202.851 233.352 202.779C233.615 202.71 233.873 202.638 234.134 202.565C234.396 202.497 234.655 202.424 234.915 202.352C235.178 202.283 235.436 202.211 235.697 202.138C235.959 202.07 236.217 201.997 236.478 201.924C236.741 201.856 236.999 201.784 237.259 201.711C237.522 201.643 237.782 201.57 238.043 201.497C238.303 201.429 238.564 201.357 238.824 201.284C239.087 201.216 239.345 201.143 239.605 201.07C239.868 201.002 240.126 200.929 240.387 200.857C246.688 199.201 252.612 196.137 257.667 191.704C258.331 191.12 258.98 190.515 259.614 189.894C268.568 181.08 272.579 168.403 271.539 152.217L271.548 152.206Z" fill="url(#paint24_linear_709_84)"/>
<path d="M167.576 207.928L163.623 208.184C150.896 209.005 139.873 199.35 139.05 186.657L132.733 89.3462C131.91 76.6535 141.034 65.6954 153.077 64.9184L212.616 61.0727C224.511 60.3044 234.374 63.3026 241.939 69.988C249.485 76.6711 253.758 86.9864 254.645 100.652C254.998 106.103 254.654 111.163 253.619 115.757C256.223 117.525 258.654 119.599 260.872 121.95L260.874 121.952C267.081 128.538 270.67 138.715 271.546 152.2C272.596 168.386 268.548 181.063 259.514 189.877C258.874 190.5 258.221 191.104 257.55 191.687C244.221 203.275 224.93 205.577 208.409 197.549L199.832 193.38L191.142 199.557C184.216 204.481 176.065 207.373 167.574 207.922L167.576 207.928Z" fill="url(#paint25_linear_709_84)"/>
<path d="M260.876 121.956C260.876 121.956 260.876 121.956 260.874 121.954C258.656 119.603 256.226 117.529 253.621 115.761C254.654 111.167 255.001 106.106 254.648 100.656C253.76 86.9903 249.487 76.6728 241.941 69.9919C234.377 63.3065 224.513 60.3083 212.618 61.0766L153.079 64.9223C141.039 65.6993 131.912 76.6574 132.735 89.3501L139.052 186.661C139.876 199.354 150.901 209.009 163.625 208.187L167.576 207.932C176.067 207.384 184.216 204.491 191.144 199.567L199.834 193.39L208.411 197.56C224.932 205.588 244.225 203.285 257.552 191.697C258.223 191.114 258.879 190.509 259.517 189.888C268.551 181.074 272.599 168.397 271.548 152.211C270.672 138.725 267.083 128.547 260.876 121.962V121.956ZM257.872 188.248C257.252 188.851 256.616 189.439 255.965 190.005C243.024 201.256 224.294 203.49 208.252 195.697L199.925 191.649L191.489 197.648C184.763 202.429 176.851 205.238 168.607 205.77L164.771 206.019C152.415 206.816 141.712 197.443 140.913 185.12L134.779 90.6423C133.98 78.3194 142.84 67.6805 154.529 66.9255L212.338 63.192C223.886 62.4458 233.465 65.3581 240.808 71.8476C248.134 78.337 252.284 88.3529 253.147 101.62C253.491 106.912 253.155 111.825 252.151 116.285C254.681 118.002 257.038 120.014 259.192 122.297L259.194 122.299C265.22 128.694 268.705 138.573 269.555 151.669C270.575 167.384 266.646 179.694 257.874 188.25L257.872 188.248Z" fill="url(#paint26_linear_709_84)"/>
<path d="M260.872 121.95C258.654 119.599 256.223 117.525 253.619 115.758C253.619 115.751 253.621 115.747 253.623 115.74L147.1 122.619C140.385 123.053 135.296 128.831 135.73 135.528L139.05 186.655C139.876 199.368 150.876 209.005 163.623 208.182L167.576 207.926C176.067 207.378 184.216 204.486 191.144 199.561L199.834 193.385L208.411 197.554C224.932 205.582 244.225 203.279 257.552 191.692C258.223 191.108 258.879 190.503 259.517 189.882C268.551 181.068 272.599 168.391 271.548 152.205C270.672 138.72 267.083 128.541 260.876 121.957C260.876 121.957 260.876 121.957 260.874 121.955L260.872 121.95Z" fill="url(#paint27_linear_709_84)"/>
<path d="M199.832 193.387L196.706 191.322C195.234 190.349 160.61 167.136 158.641 136.804C157.206 114.706 172.211 97.0026 193.541 95.6246C215.571 94.2026 231.993 109.149 233.474 131.973C235.505 163.24 204.048 189.869 202.708 190.987L199.834 193.384L199.832 193.387Z" fill="url(#paint28_linear_709_84)"/>
<path d="M197.073 150.041C187.77 150.642 179.711 143.582 179.108 134.304C178.506 125.025 185.584 116.988 194.888 116.387C204.191 115.786 212.25 122.846 212.852 132.124C213.455 141.403 206.376 149.44 197.073 150.041Z" fill="white"/>
<path d="M132.546 196.882L116.559 197.915C114.215 198.067 112.182 196.167 112.021 193.673L109.01 147.313C108.849 144.819 110.617 142.675 112.963 142.523L128.95 141.491C131.294 141.339 133.327 143.239 133.488 145.733L136.499 192.092C136.66 194.586 134.892 196.73 132.546 196.882Z" fill="url(#paint29_linear_709_84)"/>
<path d="M133.141 196.816L117.155 197.848C114.811 198 112.778 196.1 112.617 193.606L109.606 147.247C109.445 144.753 111.213 142.609 113.559 142.457L129.546 141.425C131.89 141.273 133.923 143.172 134.084 145.666L137.095 192.026C137.256 194.52 135.488 196.664 133.141 196.816Z" fill="url(#paint30_linear_709_84)"/>
<path d="M133.74 196.75L117.753 197.782C115.409 197.934 113.376 196.034 113.215 193.54L110.204 147.181C110.043 144.686 111.811 142.542 114.157 142.391L130.144 141.358C132.488 141.206 134.521 143.106 134.682 145.6L137.693 191.959C137.854 194.454 136.086 196.598 133.74 196.75Z" fill="url(#paint31_linear_709_84)"/>
<path d="M134.335 196.685L118.349 197.717C116.005 197.869 113.972 195.97 113.811 193.476L110.8 147.116C110.639 144.622 112.407 142.478 114.753 142.326L130.74 141.294C133.084 141.142 135.117 143.041 135.278 145.536L138.289 191.895C138.45 194.389 136.682 196.533 134.335 196.685Z" fill="url(#paint32_linear_709_84)"/>
<path d="M134.932 196.617L118.945 197.649C116.601 197.801 114.568 195.901 114.407 193.407L111.396 147.048C111.235 144.554 113.003 142.41 115.349 142.258L131.336 141.225C133.68 141.073 135.713 142.973 135.874 145.467L138.885 191.827C139.046 194.321 137.278 196.465 134.932 196.617Z" fill="url(#paint33_linear_709_84)"/>
<path d="M135.53 196.552L119.543 197.585C117.199 197.737 115.166 195.837 115.005 193.343L111.994 146.983C111.833 144.489 113.601 142.345 115.947 142.193L131.934 141.161C134.278 141.009 136.311 142.909 136.472 145.403L139.483 191.762C139.644 194.256 137.876 196.4 135.53 196.552Z" fill="url(#paint34_linear_709_84)"/>
<path d="M136.126 196.484L120.139 197.516C117.795 197.668 115.762 195.768 115.601 193.274L112.59 146.915C112.429 144.421 114.197 142.277 116.543 142.125L132.53 141.092C134.874 140.941 136.907 142.84 137.068 145.334L140.079 191.694C140.24 194.188 138.472 196.332 136.126 196.484Z" fill="url(#paint35_linear_709_84)"/>
<path d="M136.722 196.417L120.735 197.45C118.391 197.602 116.358 195.702 116.197 193.208L113.186 146.849C113.025 144.354 114.793 142.21 117.139 142.058L133.126 141.026C135.47 140.874 137.503 142.774 137.664 145.268L140.675 191.627C140.836 194.122 139.068 196.266 136.722 196.417Z" fill="url(#paint36_linear_709_84)"/>
<path d="M137.32 196.351L121.333 197.383C118.989 197.535 116.956 195.636 116.795 193.142L113.784 146.782C113.623 144.288 115.391 142.144 117.737 141.992L133.724 140.96C136.068 140.808 138.101 142.708 138.262 145.202L141.273 191.561C141.434 194.055 139.666 196.199 137.32 196.351Z" fill="url(#paint37_linear_709_84)"/>
<path d="M137.916 196.287L121.929 197.319C119.585 197.471 117.552 195.571 117.391 193.077L114.38 146.718C114.219 144.224 115.987 142.08 118.333 141.928L134.32 140.895C136.664 140.743 138.697 142.643 138.858 145.137L141.869 191.497C142.03 193.991 140.262 196.135 137.916 196.287Z" fill="url(#paint38_linear_709_84)"/>
<path d="M138.512 196.22L122.525 197.253C120.181 197.405 118.148 195.505 117.987 193.011L114.976 146.651C114.815 144.157 116.583 142.013 118.929 141.861L134.916 140.829C137.26 140.677 139.293 142.577 139.454 145.071L142.465 191.43C142.626 193.924 140.858 196.068 138.512 196.22Z" fill="url(#paint39_linear_709_84)"/>
<path d="M139.11 196.152L123.123 197.184C120.779 197.336 118.746 195.436 118.585 192.942L115.574 146.583C115.413 144.089 117.181 141.945 119.528 141.793L135.514 140.76C137.858 140.609 139.891 142.508 140.052 145.002L143.063 191.362C143.224 193.856 141.456 196 139.11 196.152Z" fill="url(#paint40_linear_709_84)"/>
<path d="M139.706 196.087L123.719 197.12C121.375 197.272 119.342 195.372 119.181 192.878L116.17 146.518C116.009 144.024 117.777 141.88 120.123 141.728L136.11 140.696C138.454 140.544 140.487 142.444 140.648 144.938L143.659 191.297C143.82 193.791 142.052 195.935 139.706 196.087Z" fill="url(#paint41_linear_709_84)"/>
<path d="M140.302 196.023L124.315 197.055C121.971 197.207 119.938 195.308 119.777 192.813L116.766 146.454C116.605 143.96 118.373 141.816 120.719 141.664L136.706 140.632C139.05 140.48 141.083 142.379 141.244 144.873L144.255 191.233C144.416 193.727 142.648 195.871 140.302 196.023Z" fill="url(#paint42_linear_709_84)"/>
<path d="M140.9 195.955L124.913 196.987C122.569 197.139 120.536 195.239 120.375 192.745L117.365 146.386C117.203 143.892 118.971 141.747 121.318 141.596L137.304 140.563C139.648 140.411 141.681 142.311 141.842 144.805L144.853 191.165C145.014 193.659 143.246 195.803 140.9 195.955Z" fill="url(#paint43_linear_709_84)"/>
<path d="M141.496 195.89L125.509 196.923C123.165 197.074 121.132 195.175 120.971 192.681L117.96 146.321C117.799 143.827 119.567 141.683 121.913 141.531L137.9 140.499C140.244 140.347 142.277 142.247 142.438 144.741L145.449 191.1C145.61 193.594 143.842 195.738 141.496 195.89Z" fill="url(#paint44_linear_709_84)"/>
<path d="M142.092 195.822L126.105 196.854C123.761 197.006 121.728 195.106 121.567 192.612L118.556 146.253C118.395 143.759 120.163 141.615 122.509 141.463L138.496 140.43C140.84 140.278 142.873 142.178 143.034 144.672L146.045 191.032C146.206 193.526 144.438 195.67 142.092 195.822Z" fill="url(#paint45_linear_709_84)"/>
<path d="M142.69 195.757L126.703 196.79C124.359 196.942 122.326 195.042 122.165 192.548L119.155 146.188C118.993 143.694 120.761 141.55 123.108 141.398L139.094 140.366C141.438 140.214 143.471 142.114 143.632 144.608L146.643 190.967C146.804 193.461 145.036 195.605 142.69 195.757Z" fill="url(#paint46_linear_709_84)"/>
<path d="M143.286 195.691L127.299 196.723C124.955 196.875 122.922 194.975 122.761 192.481L119.75 146.122C119.589 143.628 121.357 141.484 123.704 141.332L139.69 140.3C142.034 140.148 144.067 142.047 144.228 144.541L147.239 190.901C147.4 193.395 145.632 195.539 143.286 195.691Z" fill="url(#paint47_linear_709_84)"/>
<path d="M143.882 195.626L127.895 196.659C125.551 196.811 123.518 194.911 123.357 192.417L120.346 146.058C120.185 143.563 121.953 141.419 124.299 141.267L140.286 140.235C142.63 140.083 144.663 141.983 144.824 144.477L147.835 190.836C147.996 193.33 146.228 195.475 143.882 195.626Z" fill="url(#paint48_linear_709_84)"/>
<path d="M144.48 195.56L128.493 196.592C126.149 196.744 124.116 194.845 123.955 192.351L120.944 145.991C120.783 143.497 122.551 141.353 124.898 141.201L140.884 140.169C143.228 140.017 145.261 141.917 145.422 144.411L148.433 190.77C148.594 193.264 146.826 195.408 144.48 195.56Z" fill="url(#paint49_linear_709_84)"/>
<path d="M145.076 195.492L129.089 196.524C126.745 196.676 124.712 194.776 124.551 192.282L121.54 145.923C121.379 143.429 123.147 141.285 125.493 141.133L141.48 140.1C143.824 139.948 145.857 141.848 146.018 144.342L149.029 190.702C149.19 193.196 147.422 195.34 145.076 195.492Z" fill="url(#paint50_linear_709_84)"/>
<path d="M145.672 195.427L129.685 196.46C127.341 196.612 125.308 194.712 125.147 192.218L122.136 145.858C121.975 143.364 123.743 141.22 126.09 141.068L142.076 140.036C144.42 139.884 146.453 141.784 146.614 144.278L149.625 190.637C149.786 193.131 148.018 195.275 145.672 195.427Z" fill="url(#paint51_linear_709_84)"/>
<path d="M145.672 195.964L129.685 196.997C127.341 197.149 125.308 195.249 125.147 192.755L122.136 146.395C121.975 143.901 123.743 141.757 126.089 141.605L142.076 140.573C144.42 140.421 146.453 142.321 146.614 144.815L149.625 191.174C149.786 193.668 148.018 195.812 145.672 195.964Z" fill="#5BD9FF"/>
<path d="M279.94 187.297L263.587 188.353C261.19 188.507 259.113 186.612 258.952 184.118L255.941 137.759C255.78 135.264 257.592 133.118 259.991 132.962L276.344 131.905C278.741 131.751 280.818 133.646 280.979 136.141L283.99 182.5C284.151 184.994 282.339 187.14 279.94 187.297Z" fill="#5BD9FF"/>
<defs>
<linearGradient id="paint0_linear_709_84" x1="260.924" y1="205.925" x2="280.512" y2="24.6445" gradientUnits="userSpaceOnUse">
<stop stop-color="#149EFF"/>
<stop offset="0.21" stop-color="#1BA4FF"/>
<stop offset="0.53" stop-color="#30B5FF"/>
<stop offset="0.91" stop-color="#52D1FF"/>
<stop offset="1" stop-color="#5BD9FF"/>
</linearGradient>
<linearGradient id="paint1_linear_709_84" x1="258.459" y1="205.716" x2="289.242" y2="25.3972" gradientUnits="userSpaceOnUse">
<stop stop-color="#149EFF"/>
<stop offset="0.21" stop-color="#1BA4FF"/>
<stop offset="0.53" stop-color="#30B5FF"/>
<stop offset="0.91" stop-color="#52D1FF"/>
<stop offset="1" stop-color="#5BD9FF"/>
</linearGradient>
<linearGradient id="paint2_linear_709_84" x1="258.804" y1="205.601" x2="288.932" y2="25.9136" gradientUnits="userSpaceOnUse">
<stop stop-color="#149EFF"/>
<stop offset="0.21" stop-color="#1BA4FF"/>
<stop offset="0.53" stop-color="#30B5FF"/>
<stop offset="0.91" stop-color="#52D1FF"/>
<stop offset="1" stop-color="#5BD9FF"/>
</linearGradient>
<linearGradient id="paint3_linear_709_84" x1="259.118" y1="205.517" x2="288.626" y2="26.4698" gradientUnits="userSpaceOnUse">
<stop stop-color="#149EFF"/>
<stop offset="0.21" stop-color="#1BA4FF"/>
<stop offset="0.53" stop-color="#30B5FF"/>
<stop offset="0.91" stop-color="#52D1FF"/>
<stop offset="1" stop-color="#5BD9FF"/>
</linearGradient>
<linearGradient id="paint4_linear_709_84" x1="259.459" y1="205.398" x2="288.318" y2="26.9947" gradientUnits="userSpaceOnUse">
<stop stop-color="#149EFF"/>
<stop offset="0.21" stop-color="#1BA4FF"/>
<stop offset="0.53" stop-color="#30B5FF"/>
<stop offset="0.91" stop-color="#52D1FF"/>
<stop offset="1" stop-color="#5BD9FF"/>
</linearGradient>
<linearGradient id="paint5_linear_709_84" x1="259.799" y1="205.28" x2="288.016" y2="27.5235" gradientUnits="userSpaceOnUse">
<stop stop-color="#149EFF"/>
<stop offset="0.21" stop-color="#1BA4FF"/>
<stop offset="0.53" stop-color="#30B5FF"/>
<stop offset="0.91" stop-color="#52D1FF"/>
<stop offset="1" stop-color="#5BD9FF"/>
</linearGradient>
<linearGradient id="paint6_linear_709_84" x1="260.14" y1="205.158" x2="287.714" y2="28.0501" gradientUnits="userSpaceOnUse">
<stop stop-color="#149EFF"/>
<stop offset="0.21" stop-color="#1BA4FF"/>
<stop offset="0.53" stop-color="#30B5FF"/>
<stop offset="0.91" stop-color="#52D1FF"/>
<stop offset="1" stop-color="#5BD9FF"/>
</linearGradient>
<linearGradient id="paint7_linear_709_84" x1="260.478" y1="205.031" x2="287.415" y2="28.5829" gradientUnits="userSpaceOnUse">
<stop stop-color="#149EFF"/>
<stop offset="0.21" stop-color="#1BA4FF"/>
<stop offset="0.53" stop-color="#30B5FF"/>
<stop offset="0.91" stop-color="#52D1FF"/>
<stop offset="1" stop-color="#5BD9FF"/>
</linearGradient>
<linearGradient id="paint8_linear_709_84" x1="260.815" y1="204.904" x2="287.119" y2="29.1155" gradientUnits="userSpaceOnUse">
<stop stop-color="#149EFF"/>
<stop offset="0.21" stop-color="#1BA4FF"/>
<stop offset="0.53" stop-color="#30B5FF"/>
<stop offset="0.91" stop-color="#52D1FF"/>
<stop offset="1" stop-color="#5BD9FF"/>
</linearGradient>
<linearGradient id="paint9_linear_709_84" x1="261.151" y1="204.779" x2="286.827" y2="29.6539" gradientUnits="userSpaceOnUse">
<stop stop-color="#149EFF"/>
<stop offset="0.21" stop-color="#1BA4FF"/>
<stop offset="0.53" stop-color="#30B5FF"/>
<stop offset="0.91" stop-color="#52D1FF"/>
<stop offset="1" stop-color="#5BD9FF"/>
</linearGradient>
<linearGradient id="paint10_linear_709_84" x1="261.458" y1="204.674" x2="286.539" y2="30.2244" gradientUnits="userSpaceOnUse">
<stop stop-color="#149EFF"/>
<stop offset="0.21" stop-color="#1BA4FF"/>
<stop offset="0.53" stop-color="#30B5FF"/>
<stop offset="0.91" stop-color="#52D1FF"/>
<stop offset="1" stop-color="#5BD9FF"/>
</linearGradient>
<linearGradient id="paint11_linear_709_84" x1="261.788" y1="204.544" x2="286.249" y2="30.7687" gradientUnits="userSpaceOnUse">
<stop stop-color="#149EFF"/>
<stop offset="0.21" stop-color="#1BA4FF"/>
<stop offset="0.53" stop-color="#30B5FF"/>
<stop offset="0.91" stop-color="#52D1FF"/>
<stop offset="1" stop-color="#5BD9FF"/>
</linearGradient>
<linearGradient id="paint12_linear_709_84" x1="262.12" y1="204.409" x2="285.961" y2="31.3131" gradientUnits="userSpaceOnUse">
<stop stop-color="#149EFF"/>
<stop offset="0.21" stop-color="#1BA4FF"/>
<stop offset="0.53" stop-color="#30B5FF"/>
<stop offset="0.91" stop-color="#52D1FF"/>
<stop offset="1" stop-color="#5BD9FF"/>
</linearGradient>
<linearGradient id="paint13_linear_709_84" x1="262.45" y1="204.271" x2="285.678" y2="31.8589" gradientUnits="userSpaceOnUse">
<stop stop-color="#149EFF"/>
<stop offset="0.21" stop-color="#1BA4FF"/>
<stop offset="0.53" stop-color="#30B5FF"/>
<stop offset="0.91" stop-color="#52D1FF"/>
<stop offset="1" stop-color="#5BD9FF"/>
</linearGradient>
<linearGradient id="paint14_linear_709_84" x1="262.779" y1="204.135" x2="285.397" y2="32.4084" gradientUnits="userSpaceOnUse">
<stop stop-color="#149EFF"/>
<stop offset="0.21" stop-color="#1BA4FF"/>
<stop offset="0.53" stop-color="#30B5FF"/>
<stop offset="0.91" stop-color="#52D1FF"/>
<stop offset="1" stop-color="#5BD9FF"/>
</linearGradient>
<linearGradient id="paint15_linear_709_84" x1="263.106" y1="203.992" x2="285.118" y2="32.9598" gradientUnits="userSpaceOnUse">
<stop stop-color="#149EFF"/>
<stop offset="0.21" stop-color="#1BA4FF"/>
<stop offset="0.53" stop-color="#30B5FF"/>
<stop offset="0.91" stop-color="#52D1FF"/>
<stop offset="1" stop-color="#5BD9FF"/>
</linearGradient>
<linearGradient id="paint16_linear_709_84" x1="263.407" y1="203.88" x2="284.846" y2="33.5472" gradientUnits="userSpaceOnUse">
<stop stop-color="#149EFF"/>
<stop offset="0.21" stop-color="#1BA4FF"/>
<stop offset="0.53" stop-color="#30B5FF"/>
<stop offset="0.91" stop-color="#52D1FF"/>
<stop offset="1" stop-color="#5BD9FF"/>
</linearGradient>
<linearGradient id="paint17_linear_709_84" x1="263.73" y1="203.736" x2="284.571" y2="34.102" gradientUnits="userSpaceOnUse">
<stop stop-color="#149EFF"/>
<stop offset="0.21" stop-color="#1BA4FF"/>
<stop offset="0.53" stop-color="#30B5FF"/>
<stop offset="0.91" stop-color="#52D1FF"/>
<stop offset="1" stop-color="#5BD9FF"/>
</linearGradient>
<linearGradient id="paint18_linear_709_84" x1="264.05" y1="203.59" x2="284.3" y2="34.6603" gradientUnits="userSpaceOnUse">
<stop stop-color="#149EFF"/>
<stop offset="0.21" stop-color="#1BA4FF"/>
<stop offset="0.53" stop-color="#30B5FF"/>
<stop offset="0.91" stop-color="#52D1FF"/>
<stop offset="1" stop-color="#5BD9FF"/>
</linearGradient>
<linearGradient id="paint19_linear_709_84" x1="264.372" y1="203.441" x2="284.03" y2="35.2204" gradientUnits="userSpaceOnUse">
<stop stop-color="#149EFF"/>
<stop offset="0.21" stop-color="#1BA4FF"/>
<stop offset="0.53" stop-color="#30B5FF"/>
<stop offset="0.91" stop-color="#52D1FF"/>
<stop offset="1" stop-color="#5BD9FF"/>
</linearGradient>
<linearGradient id="paint20_linear_709_84" x1="264.692" y1="203.291" x2="283.763" y2="35.7838" gradientUnits="userSpaceOnUse">
<stop stop-color="#149EFF"/>
<stop offset="0.21" stop-color="#1BA4FF"/>
<stop offset="0.53" stop-color="#30B5FF"/>
<stop offset="0.91" stop-color="#52D1FF"/>
<stop offset="1" stop-color="#5BD9FF"/>
</linearGradient>
<linearGradient id="paint21_linear_709_84" x1="265.009" y1="203.14" x2="283.5" y2="36.3487" gradientUnits="userSpaceOnUse">
<stop stop-color="#149EFF"/>
<stop offset="0.21" stop-color="#1BA4FF"/>
<stop offset="0.53" stop-color="#30B5FF"/>
<stop offset="0.91" stop-color="#52D1FF"/>
<stop offset="1" stop-color="#5BD9FF"/>
</linearGradient>
<linearGradient id="paint22_linear_709_84" x1="265.301" y1="203.015" x2="283.243" y2="36.9483" gradientUnits="userSpaceOnUse">
<stop stop-color="#149EFF"/>
<stop offset="0.21" stop-color="#1BA4FF"/>
<stop offset="0.53" stop-color="#30B5FF"/>
<stop offset="0.91" stop-color="#52D1FF"/>
<stop offset="1" stop-color="#5BD9FF"/>
</linearGradient>
<linearGradient id="paint23_linear_709_84" x1="182.858" y1="91.9806" x2="196.209" y2="57.4405" gradientUnits="userSpaceOnUse">
<stop stop-color="white"/>
<stop offset="0.09" stop-color="white" stop-opacity="0.97"/>
<stop offset="0.22" stop-color="white" stop-opacity="0.89"/>
<stop offset="0.38" stop-color="white" stop-opacity="0.75"/>
<stop offset="0.56" stop-color="white" stop-opacity="0.57"/>
<stop offset="0.76" stop-color="white" stop-opacity="0.33"/>
<stop offset="0.97" stop-color="white" stop-opacity="0.04"/>
<stop offset="1" stop-color="white" stop-opacity="0"/>
</linearGradient>
<linearGradient id="paint24_linear_709_84" x1="209.095" y1="46.4355" x2="162.509" y2="298.076" gradientUnits="userSpaceOnUse">
<stop stop-color="#1C61C4"/>
<stop offset="1" stop-color="#142A8A"/>
</linearGradient>
<linearGradient id="paint25_linear_709_84" x1="207.549" y1="78.9576" x2="179.177" y2="316.968" gradientUnits="userSpaceOnUse">
<stop stop-color="#247DFD"/>
<stop offset="0.02" stop-color="#237AFC"/>
<stop offset="0.2" stop-color="#2365F9"/>
<stop offset="0.4" stop-color="#2356F6"/>
<stop offset="0.64" stop-color="#234DF5"/>
<stop offset="1" stop-color="#234BF5"/>
</linearGradient>
<linearGradient id="paint26_linear_709_84" x1="236.354" y1="65.3603" x2="193.705" y2="141.966" gradientUnits="userSpaceOnUse">
<stop stop-color="white" stop-opacity="0.58"/>
<stop offset="0.11" stop-color="white" stop-opacity="0.43"/>
<stop offset="0.22" stop-color="white" stop-opacity="0.3"/>
<stop offset="0.34" stop-color="white" stop-opacity="0.19"/>
<stop offset="0.46" stop-color="white" stop-opacity="0.1"/>
<stop offset="0.6" stop-color="white" stop-opacity="0.05"/>
<stop offset="0.76" stop-color="white" stop-opacity="0.01"/>
<stop offset="1" stop-color="white" stop-opacity="0"/>
</linearGradient>
<linearGradient id="paint27_linear_709_84" x1="205.992" y1="128.389" x2="186.942" y2="288.198" gradientUnits="userSpaceOnUse">
<stop stop-color="#3586FD"/>
<stop offset="0.21" stop-color="#2E71FA"/>
<stop offset="0.48" stop-color="#285BF7"/>
<stop offset="0.75" stop-color="#244FF5"/>
<stop offset="1" stop-color="#234BF5"/>
</linearGradient>
<linearGradient id="paint28_linear_709_84" x1="196.418" y1="113.049" x2="194.207" y2="242.644" gradientUnits="userSpaceOnUse">
<stop stop-color="#5BD9FF"/>
<stop offset="1" stop-color="#3684FF"/>
</linearGradient>
<linearGradient id="paint29_linear_709_84" x1="116.223" y1="215.642" x2="139.684" y2="49.7342" gradientUnits="userSpaceOnUse">
<stop stop-color="#0894FF"/>
<stop offset="0.19" stop-color="#0F9AFF"/>
<stop offset="0.47" stop-color="#24ABFF"/>
<stop offset="0.82" stop-color="#46C7FF"/>
<stop offset="1" stop-color="#5BD9FF"/>
</linearGradient>
<linearGradient id="paint30_linear_709_84" x1="117.075" y1="214.897" x2="139.541" y2="51.9869" gradientUnits="userSpaceOnUse">
<stop stop-color="#0A95FF"/>
<stop offset="0.19" stop-color="#119BFF"/>
<stop offset="0.48" stop-color="#26ACFF"/>
<stop offset="0.83" stop-color="#48C9FF"/>
<stop offset="1" stop-color="#5BD9FF"/>
</linearGradient>
<linearGradient id="paint31_linear_709_84" x1="117.925" y1="214.151" x2="139.414" y2="54.2418" gradientUnits="userSpaceOnUse">
<stop stop-color="#0B97FF"/>
<stop offset="0.19" stop-color="#129DFF"/>
<stop offset="0.49" stop-color="#27AEFF"/>
<stop offset="0.84" stop-color="#49CAFF"/>
<stop offset="1" stop-color="#5BD9FF"/>
</linearGradient>
<linearGradient id="paint32_linear_709_84" x1="118.768" y1="213.404" x2="139.302" y2="56.5007" gradientUnits="userSpaceOnUse">
<stop stop-color="#0D98FF"/>
<stop offset="0.2" stop-color="#149EFF"/>
<stop offset="0.49" stop-color="#29AFFF"/>
<stop offset="0.85" stop-color="#4BCBFF"/>
<stop offset="1" stop-color="#5BD9FF"/>
</linearGradient>
<linearGradient id="paint33_linear_709_84" x1="119.607" y1="212.655" x2="139.207" y2="58.7601" gradientUnits="userSpaceOnUse">
<stop stop-color="#0F9AFF"/>
<stop offset="0.2" stop-color="#16A0FF"/>
<stop offset="0.5" stop-color="#2BB1FF"/>
<stop offset="0.87" stop-color="#4DCDFF"/>
<stop offset="1" stop-color="#5BD9FF"/>
</linearGradient>
<linearGradient id="paint34_linear_709_84" x1="120.441" y1="211.906" x2="139.128" y2="61.0256" gradientUnits="userSpaceOnUse">
<stop stop-color="#119BFF"/>
<stop offset="0.2" stop-color="#18A1FF"/>
<stop offset="0.51" stop-color="#2DB2FF"/>
<stop offset="0.89" stop-color="#4FCFFF"/>
<stop offset="1" stop-color="#5BD9FF"/>
</linearGradient>
<linearGradient id="paint35_linear_709_84" x1="121.269" y1="211.158" x2="139.066" y2="63.2937" gradientUnits="userSpaceOnUse">
<stop stop-color="#129DFF"/>
<stop offset="0.21" stop-color="#19A3FF"/>
<stop offset="0.52" stop-color="#2EB4FF"/>
<stop offset="0.89" stop-color="#50D0FF"/>
<stop offset="1" stop-color="#5BD9FF"/>
</linearGradient>
<linearGradient id="paint36_linear_709_84" x1="122.095" y1="210.405" x2="139.02" y2="65.5616" gradientUnits="userSpaceOnUse">
<stop stop-color="#149EFF"/>
<stop offset="0.21" stop-color="#1BA4FF"/>
<stop offset="0.53" stop-color="#30B5FF"/>
<stop offset="0.91" stop-color="#52D1FF"/>
<stop offset="1" stop-color="#5BD9FF"/>
</linearGradient>
<linearGradient id="paint37_linear_709_84" x1="122.913" y1="209.654" x2="138.989" y2="67.8316" gradientUnits="userSpaceOnUse">
<stop stop-color="#16A0FF"/>
<stop offset="0.21" stop-color="#1DA6FF"/>
<stop offset="0.54" stop-color="#32B7FF"/>
<stop offset="0.93" stop-color="#54D3FF"/>
<stop offset="1" stop-color="#5BD9FF"/>
</linearGradient>
<linearGradient id="paint38_linear_709_84" x1="123.728" y1="208.902" x2="138.978" y2="70.1079" gradientUnits="userSpaceOnUse">
<stop stop-color="#18A1FF"/>
<stop offset="0.22" stop-color="#1FA7FF"/>
<stop offset="0.55" stop-color="#34B8FF"/>
<stop offset="0.95" stop-color="#56D5FF"/>
<stop offset="1" stop-color="#5BD9FF"/>
</linearGradient>
<linearGradient id="paint39_linear_709_84" x1="124.538" y1="208.147" x2="138.98" y2="72.3822" gradientUnits="userSpaceOnUse">
<stop stop-color="#19A3FF"/>
<stop offset="0.22" stop-color="#20A9FF"/>
<stop offset="0.56" stop-color="#35BAFF"/>
<stop offset="0.96" stop-color="#57D5FF"/>
<stop offset="1" stop-color="#5BD9FF"/>
</linearGradient>
<linearGradient id="paint40_linear_709_84" x1="125.344" y1="207.392" x2="139" y2="74.6567" gradientUnits="userSpaceOnUse">
<stop stop-color="#1BA4FF"/>
<stop offset="0.23" stop-color="#22AAFF"/>
<stop offset="0.57" stop-color="#37BBFF"/>
<stop offset="0.98" stop-color="#59D7FF"/>
<stop offset="1" stop-color="#5BD9FF"/>
</linearGradient>
<linearGradient id="paint41_linear_709_84" x1="126.142" y1="206.638" x2="139.037" y2="76.9351" gradientUnits="userSpaceOnUse">
<stop stop-color="#1DA5FF"/>
<stop offset="0.23" stop-color="#24ABFF"/>
<stop offset="0.58" stop-color="#39BCFF"/>
<stop offset="1" stop-color="#5BD9FF"/>
</linearGradient>
<linearGradient id="paint42_linear_709_84" x1="126.939" y1="205.885" x2="139.087" y2="79.2178" gradientUnits="userSpaceOnUse">
<stop stop-color="#1EA7FF"/>
<stop offset="0.23" stop-color="#25ADFF"/>
<stop offset="0.59" stop-color="#3ABEFF"/>
<stop offset="1" stop-color="#5BD9FF"/>
</linearGradient>
<linearGradient id="paint43_linear_709_84" x1="127.729" y1="205.125" x2="139.157" y2="81.4966" gradientUnits="userSpaceOnUse">
<stop stop-color="#20A8FF"/>
<stop offset="0.24" stop-color="#27AEFF"/>
<stop offset="0.6" stop-color="#3CBFFF"/>
<stop offset="1" stop-color="#5BD9FF"/>
</linearGradient>
<linearGradient id="paint44_linear_709_84" x1="128.515" y1="204.37" x2="139.242" y2="83.7793" gradientUnits="userSpaceOnUse">
<stop stop-color="#22AAFF"/>
<stop offset="0.24" stop-color="#29B0FF"/>
<stop offset="0.62" stop-color="#3EC1FF"/>
<stop offset="1" stop-color="#5BD9FF"/>
</linearGradient>
<linearGradient id="paint45_linear_709_84" x1="129.294" y1="203.61" x2="139.343" y2="86.0602" gradientUnits="userSpaceOnUse">
<stop stop-color="#24ABFF"/>
<stop offset="0.25" stop-color="#2BB1FF"/>
<stop offset="0.63" stop-color="#40C2FF"/>
<stop offset="1" stop-color="#5BD9FF"/>
</linearGradient>
<linearGradient id="paint46_linear_709_84" x1="130.071" y1="202.854" x2="139.462" y2="88.3451" gradientUnits="userSpaceOnUse">
<stop stop-color="#25ADFF"/>
<stop offset="0.25" stop-color="#2CB3FF"/>
<stop offset="0.64" stop-color="#41C4FF"/>
<stop offset="1" stop-color="#5BD9FF"/>
</linearGradient>
<linearGradient id="paint47_linear_709_84" x1="130.842" y1="202.094" x2="139.595" y2="90.6301" gradientUnits="userSpaceOnUse">
<stop stop-color="#27AEFF"/>
<stop offset="0.26" stop-color="#2EB4FF"/>
<stop offset="0.65" stop-color="#43C5FF"/>
<stop offset="1" stop-color="#5BD9FF"/>
</linearGradient>
<linearGradient id="paint48_linear_709_84" x1="131.607" y1="201.339" x2="139.746" y2="92.9148" gradientUnits="userSpaceOnUse">
<stop stop-color="#29B0FF"/>
<stop offset="0.27" stop-color="#30B6FF"/>
<stop offset="0.67" stop-color="#45C7FF"/>
<stop offset="1" stop-color="#5BD9FF"/>
</linearGradient>
<linearGradient id="paint49_linear_709_84" x1="132.369" y1="200.579" x2="139.915" y2="95.1998" gradientUnits="userSpaceOnUse">
<stop stop-color="#2BB1FF"/>
<stop offset="0.28" stop-color="#32B7FF"/>
<stop offset="0.69" stop-color="#47C8FF"/>
<stop offset="1" stop-color="#5BD9FF"/>
</linearGradient>
<linearGradient id="paint50_linear_709_84" x1="133.126" y1="199.817" x2="140.097" y2="97.4828" gradientUnits="userSpaceOnUse">
<stop stop-color="#2CB3FF"/>
<stop offset="0.28" stop-color="#33B9FF"/>
<stop offset="0.7" stop-color="#48C9FF"/>
<stop offset="1" stop-color="#5BD9FF"/>
</linearGradient>
<linearGradient id="paint51_linear_709_84" x1="133.876" y1="199.059" x2="140.298" y2="99.7696" gradientUnits="userSpaceOnUse">
<stop stop-color="#2EB4FF"/>
<stop offset="0.29" stop-color="#35BAFF"/>
<stop offset="0.72" stop-color="#4ACBFF"/>
<stop offset="1" stop-color="#5BD9FF"/>
</linearGradient>
</defs>
</svg>
    