<?xml version="1.0" encoding="UTF-8"?>
<svg id="Layer_1" data-name="Layer 1" xmlns="http://www.w3.org/2000/svg" xmlns:xlink="http://www.w3.org/1999/xlink" viewBox="0 0 1080 1080">
  <defs>
    <style>
      .cls-1 {
        fill: url(#linear-gradient-38);
      }

      .cls-1, .cls-2, .cls-3, .cls-4, .cls-5, .cls-6, .cls-7, .cls-8, .cls-9, .cls-10, .cls-11, .cls-12, .cls-13, .cls-14, .cls-15, .cls-16, .cls-17, .cls-18, .cls-19, .cls-20, .cls-21, .cls-22, .cls-23, .cls-24, .cls-25, .cls-26, .cls-27, .cls-28, .cls-29, .cls-30, .cls-31, .cls-32, .cls-33, .cls-34, .cls-35, .cls-36, .cls-37, .cls-38, .cls-39, .cls-40, .cls-41, .cls-42, .cls-43, .cls-44, .cls-45, .cls-46, .cls-47, .cls-48, .cls-49, .cls-50, .cls-51, .cls-52, .cls-53, .cls-54, .cls-55, .cls-56 {
        stroke-width: 0px;
      }

      .cls-2 {
        fill: url(#linear-gradient-12);
      }

      .cls-3 {
        fill: url(#linear-gradient-17);
      }

      .cls-4 {
        fill: url(#linear-gradient-19);
      }

      .cls-5 {
        fill: url(#linear-gradient-33);
      }

      .cls-6 {
        fill: url(#linear-gradient);
      }

      .cls-7 {
        fill: url(#linear-gradient-21);
      }

      .cls-8 {
        fill: url(#linear-gradient-6);
      }

      .cls-9 {
        fill: url(#linear-gradient-42);
      }

      .cls-11 {
        fill: url(#linear-gradient-15);
      }

      .cls-12 {
        fill: url(#linear-gradient-11);
      }

      .cls-13 {
        fill: #5bd9ff;
      }

      .cls-14 {
        fill: url(#linear-gradient-5);
      }

      .cls-15 {
        fill: url(#linear-gradient-31);
      }

      .cls-16 {
        fill: url(#linear-gradient-34);
      }

      .cls-17 {
        fill: url(#linear-gradient-41);
      }

      .cls-18 {
        fill: url(#linear-gradient-40);
      }

      .cls-19 {
        fill: url(#linear-gradient-13);
      }

      .cls-20 {
        fill: url(#linear-gradient-23);
      }

      .cls-21 {
        fill: url(#linear-gradient-25);
      }

      .cls-22 {
        fill: url(#linear-gradient-43);
      }

      .cls-23 {
        fill: url(#linear-gradient-16);
      }

      .cls-24 {
        fill: url(#linear-gradient-22);
      }

      .cls-25 {
        fill: #fff;
      }

      .cls-26 {
        fill: url(#linear-gradient-35);
      }

      .cls-27 {
        fill: url(#linear-gradient-50);
      }

      .cls-28 {
        fill: url(#linear-gradient-32);
      }

      .cls-29 {
        fill: url(#linear-gradient-20);
      }

      .cls-30 {
        fill: url(#linear-gradient-14);
      }

      .cls-31 {
        fill: url(#linear-gradient-2);
      }

      .cls-32 {
        fill: url(#linear-gradient-52);
      }

      .cls-33 {
        fill: url(#linear-gradient-45);
      }

      .cls-34 {
        fill: #3d3d3d;
      }

      .cls-35 {
        fill: url(#linear-gradient-7);
      }

      .cls-36 {
        fill: url(#linear-gradient-39);
      }

      .cls-37 {
        fill: url(#linear-gradient-3);
      }

      .cls-38 {
        fill: url(#linear-gradient-9);
      }

      .cls-39 {
        fill: url(#linear-gradient-27);
      }

      .cls-40 {
        fill: url(#linear-gradient-36);
      }

      .cls-41 {
        fill: url(#linear-gradient-48);
      }

      .cls-42 {
        fill: url(#linear-gradient-49);
      }

      .cls-43 {
        fill: url(#linear-gradient-8);
      }

      .cls-44 {
        fill: url(#linear-gradient-47);
      }

      .cls-45 {
        fill: url(#linear-gradient-24);
      }

      .cls-46 {
        fill: url(#linear-gradient-26);
      }

      .cls-47 {
        fill: url(#linear-gradient-18);
      }

      .cls-48 {
        fill: url(#linear-gradient-51);
      }

      .cls-49 {
        fill: url(#linear-gradient-30);
      }

      .cls-50 {
        fill: url(#linear-gradient-44);
      }

      .cls-51 {
        fill: url(#linear-gradient-29);
      }

      .cls-52 {
        fill: url(#linear-gradient-46);
      }

      .cls-53 {
        fill: url(#linear-gradient-28);
      }

      .cls-54 {
        fill: url(#linear-gradient-10);
      }

      .cls-55 {
        fill: url(#linear-gradient-4);
      }

      .cls-56 {
        fill: url(#linear-gradient-37);
      }
    </style>
    <linearGradient id="linear-gradient" x1="829.7" y1="948.14" x2="978.54" y2="93.86" gradientTransform="translate(-43.59 22.87) rotate(-3.7)" gradientUnits="userSpaceOnUse">
      <stop offset="0" stop-color="#149eff"/>
      <stop offset=".21" stop-color="#1ba4ff"/>
      <stop offset=".53" stop-color="#30b5ff"/>
      <stop offset=".91" stop-color="#52d1ff"/>
      <stop offset="1" stop-color="#5bd9ff"/>
    </linearGradient>
    <linearGradient id="linear-gradient-2" x1="830.89" y1="946.11" x2="979.23" y2="94.67" gradientTransform="translate(-41.61 21.83) rotate(-3.54)" xlink:href="#linear-gradient"/>
    <linearGradient id="linear-gradient-3" x1="832.06" y1="944.07" x2="979.91" y2="95.48" gradientTransform="translate(-39.63 20.79) rotate(-3.37)" xlink:href="#linear-gradient"/>
    <linearGradient id="linear-gradient-4" x1="833.23" y1="942.02" x2="980.57" y2="96.3" gradientTransform="translate(-37.65 19.75) rotate(-3.2)" xlink:href="#linear-gradient"/>
    <linearGradient id="linear-gradient-5" x1="834.38" y1="939.95" x2="981.22" y2="97.12" gradientTransform="translate(-35.67 18.71) rotate(-3.03)" xlink:href="#linear-gradient"/>
    <linearGradient id="linear-gradient-6" x1="835.52" y1="937.88" x2="981.86" y2="97.95" gradientTransform="translate(-33.68 17.67) rotate(-2.86)" xlink:href="#linear-gradient"/>
    <linearGradient id="linear-gradient-7" x1="836.65" y1="935.8" x2="982.47" y2="98.79" gradientTransform="translate(-31.7 16.63) rotate(-2.69)" xlink:href="#linear-gradient"/>
    <linearGradient id="linear-gradient-8" x1="837.76" y1="933.71" x2="983.08" y2="99.63" gradientTransform="translate(-29.72 15.59) rotate(-2.53)" xlink:href="#linear-gradient"/>
    <linearGradient id="linear-gradient-9" x1="838.87" y1="931.61" x2="983.67" y2="100.48" gradientTransform="translate(-27.74 14.55) rotate(-2.36)" xlink:href="#linear-gradient"/>
    <linearGradient id="linear-gradient-10" x1="839.96" y1="929.49" x2="984.24" y2="101.34" gradientTransform="translate(-25.76 13.51) rotate(-2.19)" xlink:href="#linear-gradient"/>
    <linearGradient id="linear-gradient-11" x1="841.04" y1="927.37" x2="984.8" y2="102.2" gradientTransform="translate(-23.78 12.47) rotate(-2.02)" xlink:href="#linear-gradient"/>
    <linearGradient id="linear-gradient-12" x1="842.1" y1="925.24" x2="985.35" y2="103.06" gradientTransform="translate(-21.8 11.43) rotate(-1.85)" xlink:href="#linear-gradient"/>
    <linearGradient id="linear-gradient-13" x1="843.16" y1="923.1" x2="985.88" y2="103.93" gradientTransform="translate(-19.81 10.39) rotate(-1.68)" xlink:href="#linear-gradient"/>
    <linearGradient id="linear-gradient-14" x1="844.2" y1="920.95" x2="986.39" y2="104.81" gradientTransform="translate(-17.83 9.35) rotate(-1.52)" xlink:href="#linear-gradient"/>
    <linearGradient id="linear-gradient-15" x1="845.23" y1="918.79" x2="986.89" y2="105.69" gradientTransform="translate(-15.85 8.32) rotate(-1.35)" xlink:href="#linear-gradient"/>
    <linearGradient id="linear-gradient-16" x1="846.25" y1="916.62" x2="987.37" y2="106.58" gradientTransform="translate(-13.87 7.28) rotate(-1.18)" xlink:href="#linear-gradient"/>
    <linearGradient id="linear-gradient-17" x1="847.25" y1="914.44" x2="987.84" y2="107.48" gradientTransform="translate(-11.89 6.24) rotate(-1.01)" xlink:href="#linear-gradient"/>
    <linearGradient id="linear-gradient-18" x1="848.24" y1="912.25" x2="988.3" y2="108.38" gradientTransform="translate(-9.91 5.2) rotate(-.84)" xlink:href="#linear-gradient"/>
    <linearGradient id="linear-gradient-19" x1="849.22" y1="910.06" x2="988.74" y2="109.28" gradientTransform="translate(-7.93 4.16) rotate(-.67)" xlink:href="#linear-gradient"/>
    <linearGradient id="linear-gradient-20" x1="850.19" y1="907.85" x2="989.16" y2="110.19" gradientTransform="translate(-5.94 3.12) rotate(-.5)" xlink:href="#linear-gradient"/>
    <linearGradient id="linear-gradient-21" x1="851.14" y1="905.64" x2="989.57" y2="111.11" gradientTransform="translate(-3.96 2.08) rotate(-.34)" xlink:href="#linear-gradient"/>
    <linearGradient id="linear-gradient-22" x1="852.08" y1="903.42" x2="989.96" y2="112.03" gradientTransform="translate(-1.98 1.04) rotate(-.17)" xlink:href="#linear-gradient"/>
    <linearGradient id="linear-gradient-23" x1="851.31" y1="935.67" x2="987.65" y2="153.08" xlink:href="#linear-gradient"/>
    <linearGradient id="linear-gradient-24" x1="495.16" y1="383.47" x2="569.24" y2="223.76" gradientTransform="translate(-43.59 22.87) rotate(-3.7)" gradientUnits="userSpaceOnUse">
      <stop offset="0" stop-color="#fff"/>
      <stop offset=".09" stop-color="#fff" stop-opacity=".97"/>
      <stop offset=".22" stop-color="#fff" stop-opacity=".89"/>
      <stop offset=".38" stop-color="#fff" stop-opacity=".75"/>
      <stop offset=".56" stop-color="#fff" stop-opacity=".57"/>
      <stop offset=".76" stop-color="#fff" stop-opacity=".33"/>
      <stop offset=".97" stop-color="#fff" stop-opacity=".04"/>
      <stop offset="1" stop-color="#fff" stop-opacity="0"/>
    </linearGradient>
    <linearGradient id="linear-gradient-25" x1="599.75" y1="156.96" x2="377.64" y2="1353.52" gradientUnits="userSpaceOnUse">
      <stop offset="0" stop-color="#1c61c4"/>
      <stop offset="1" stop-color="#142a8a"/>
    </linearGradient>
    <linearGradient id="linear-gradient-26" x1="616.02" y1="329.22" x2="407.98" y2="1450" gradientTransform="translate(-43.59 22.87) rotate(-3.7)" gradientUnits="userSpaceOnUse">
      <stop offset="0" stop-color="#247dfd"/>
      <stop offset=".02" stop-color="#237afc"/>
      <stop offset=".2" stop-color="#2365f9"/>
      <stop offset=".4" stop-color="#2356f6"/>
      <stop offset=".64" stop-color="#234df5"/>
      <stop offset="1" stop-color="#234bf5"/>
    </linearGradient>
    <linearGradient id="linear-gradient-27" x1="729.04" y1="246.96" x2="525.92" y2="610.83" gradientUnits="userSpaceOnUse">
      <stop offset="0" stop-color="#fff" stop-opacity=".6"/>
      <stop offset="0" stop-color="#fff" stop-opacity=".58"/>
      <stop offset=".11" stop-color="#fff" stop-opacity=".43"/>
      <stop offset=".22" stop-color="#fff" stop-opacity=".3"/>
      <stop offset=".34" stop-color="#fff" stop-opacity=".19"/>
      <stop offset=".46" stop-color="#fff" stop-opacity=".1"/>
      <stop offset=".6" stop-color="#fff" stop-opacity=".05"/>
      <stop offset=".76" stop-color="#fff" stop-opacity=".01"/>
      <stop offset="1" stop-color="#fff" stop-opacity="0"/>
    </linearGradient>
    <linearGradient id="linear-gradient-28" x1="593.48" y1="563.36" x2="453.8" y2="1315.89" gradientTransform="translate(-43.59 22.87) rotate(-3.7)" gradientUnits="userSpaceOnUse">
      <stop offset="0" stop-color="#3586fd"/>
      <stop offset=".21" stop-color="#2e71fa"/>
      <stop offset=".48" stop-color="#285bf7"/>
      <stop offset=".75" stop-color="#244ff5"/>
      <stop offset="1" stop-color="#234bf5"/>
    </linearGradient>
    <linearGradient id="linear-gradient-29" x1="552.88" y1="487.62" x2="502.58" y2="1101.99" gradientTransform="translate(-43.59 22.87) rotate(-3.7)" gradientUnits="userSpaceOnUse">
      <stop offset="0" stop-color="#5bd9ff"/>
      <stop offset="1" stop-color="#3684ff"/>
    </linearGradient>
    <linearGradient id="linear-gradient-30" x1="159.23" y1="961.69" x2="271.1" y2="172.73" gradientUnits="userSpaceOnUse">
      <stop offset="0" stop-color="#0894ff"/>
      <stop offset=".19" stop-color="#0f9aff"/>
      <stop offset=".47" stop-color="#24abff"/>
      <stop offset=".82" stop-color="#46c7ff"/>
      <stop offset="1" stop-color="#5bd9ff"/>
    </linearGradient>
    <linearGradient id="linear-gradient-31" x1="163.28" y1="958.15" x2="270.39" y2="183.44" gradientUnits="userSpaceOnUse">
      <stop offset="0" stop-color="#0a95ff"/>
      <stop offset=".19" stop-color="#119bff"/>
      <stop offset=".48" stop-color="#26acff"/>
      <stop offset=".83" stop-color="#48c9ff"/>
      <stop offset="1" stop-color="#5bd9ff"/>
    </linearGradient>
    <linearGradient id="linear-gradient-32" x1="167.3" y1="954.6" x2="269.77" y2="194.16" gradientUnits="userSpaceOnUse">
      <stop offset="0" stop-color="#0b97ff"/>
      <stop offset=".19" stop-color="#129dff"/>
      <stop offset=".49" stop-color="#27aeff"/>
      <stop offset=".84" stop-color="#49caff"/>
      <stop offset="1" stop-color="#5bd9ff"/>
    </linearGradient>
    <linearGradient id="linear-gradient-33" x1="171.3" y1="951.05" x2="269.21" y2="204.9" gradientUnits="userSpaceOnUse">
      <stop offset="0" stop-color="#0d98ff"/>
      <stop offset=".2" stop-color="#149eff"/>
      <stop offset=".49" stop-color="#29afff"/>
      <stop offset=".85" stop-color="#4bcbff"/>
      <stop offset="1" stop-color="#5bd9ff"/>
    </linearGradient>
    <linearGradient id="linear-gradient-34" x1="175.28" y1="947.49" x2="268.74" y2="215.65" gradientUnits="userSpaceOnUse">
      <stop offset="0" stop-color="#0f9aff"/>
      <stop offset=".2" stop-color="#16a0ff"/>
      <stop offset=".5" stop-color="#2bb1ff"/>
      <stop offset=".87" stop-color="#4dcdff"/>
      <stop offset="1" stop-color="#5bd9ff"/>
    </linearGradient>
    <linearGradient id="linear-gradient-35" x1="179.24" y1="943.93" x2="268.35" y2="226.41" gradientUnits="userSpaceOnUse">
      <stop offset="0" stop-color="#119bff"/>
      <stop offset=".2" stop-color="#18a1ff"/>
      <stop offset=".51" stop-color="#2db2ff"/>
      <stop offset=".89" stop-color="#4fcfff"/>
      <stop offset="1" stop-color="#5bd9ff"/>
    </linearGradient>
    <linearGradient id="linear-gradient-36" x1="183.17" y1="940.36" x2="268.03" y2="237.19" gradientUnits="userSpaceOnUse">
      <stop offset="0" stop-color="#129dff"/>
      <stop offset=".21" stop-color="#19a3ff"/>
      <stop offset=".52" stop-color="#2eb4ff"/>
      <stop offset=".89" stop-color="#50d0ff"/>
      <stop offset="1" stop-color="#5bd9ff"/>
    </linearGradient>
    <linearGradient id="linear-gradient-37" x1="187.08" y1="936.79" x2="267.79" y2="247.97" gradientUnits="userSpaceOnUse">
      <stop offset="0" stop-color="#149eff"/>
      <stop offset=".21" stop-color="#1ba4ff"/>
      <stop offset=".53" stop-color="#30b5ff"/>
      <stop offset=".91" stop-color="#52d1ff"/>
      <stop offset="1" stop-color="#5bd9ff"/>
    </linearGradient>
    <linearGradient id="linear-gradient-38" x1="190.97" y1="933.21" x2="267.63" y2="258.77" gradientUnits="userSpaceOnUse">
      <stop offset="0" stop-color="#16a0ff"/>
      <stop offset=".21" stop-color="#1da6ff"/>
      <stop offset=".54" stop-color="#32b7ff"/>
      <stop offset=".93" stop-color="#54d3ff"/>
      <stop offset="1" stop-color="#5bd9ff"/>
    </linearGradient>
    <linearGradient id="linear-gradient-39" x1="194.83" y1="929.63" x2="267.55" y2="269.58" gradientUnits="userSpaceOnUse">
      <stop offset="0" stop-color="#18a1ff"/>
      <stop offset=".22" stop-color="#1fa7ff"/>
      <stop offset=".55" stop-color="#34b8ff"/>
      <stop offset=".95" stop-color="#56d5ff"/>
      <stop offset="1" stop-color="#5bd9ff"/>
    </linearGradient>
    <linearGradient id="linear-gradient-40" x1="198.67" y1="926.05" x2="267.54" y2="280.4" gradientUnits="userSpaceOnUse">
      <stop offset="0" stop-color="#19a3ff"/>
      <stop offset=".22" stop-color="#20a9ff"/>
      <stop offset=".56" stop-color="#35baff"/>
      <stop offset=".96" stop-color="#57d5ff"/>
      <stop offset="1" stop-color="#5bd9ff"/>
    </linearGradient>
    <linearGradient id="linear-gradient-41" x1="202.49" y1="922.46" x2="267.61" y2="291.22" gradientUnits="userSpaceOnUse">
      <stop offset="0" stop-color="#1ba4ff"/>
      <stop offset=".23" stop-color="#2af"/>
      <stop offset=".57" stop-color="#37bbff"/>
      <stop offset=".98" stop-color="#59d7ff"/>
      <stop offset="1" stop-color="#5bd9ff"/>
    </linearGradient>
    <linearGradient id="linear-gradient-42" x1="206.29" y1="918.87" x2="267.77" y2="302.05" gradientUnits="userSpaceOnUse">
      <stop offset="0" stop-color="#1da5ff"/>
      <stop offset=".23" stop-color="#24abff"/>
      <stop offset=".58" stop-color="#39bcff"/>
      <stop offset="1" stop-color="#5bd9ff"/>
    </linearGradient>
    <linearGradient id="linear-gradient-43" x1="210.06" y1="915.28" x2="268" y2="312.89" gradientUnits="userSpaceOnUse">
      <stop offset="0" stop-color="#1ea7ff"/>
      <stop offset=".23" stop-color="#25adff"/>
      <stop offset=".59" stop-color="#3abeff"/>
      <stop offset="1" stop-color="#5bd9ff"/>
    </linearGradient>
    <linearGradient id="linear-gradient-44" x1="213.81" y1="911.68" x2="268.3" y2="323.74" gradientUnits="userSpaceOnUse">
      <stop offset="0" stop-color="#20a8ff"/>
      <stop offset=".24" stop-color="#27aeff"/>
      <stop offset=".6" stop-color="#3cbfff"/>
      <stop offset="1" stop-color="#5bd9ff"/>
    </linearGradient>
    <linearGradient id="linear-gradient-45" x1="217.54" y1="908.08" x2="268.69" y2="334.59" gradientUnits="userSpaceOnUse">
      <stop offset="0" stop-color="#2af"/>
      <stop offset=".24" stop-color="#29b0ff"/>
      <stop offset=".62" stop-color="#3ec1ff"/>
      <stop offset="1" stop-color="#5bd9ff"/>
    </linearGradient>
    <linearGradient id="linear-gradient-46" x1="221.24" y1="904.48" x2="269.16" y2="345.44" gradientUnits="userSpaceOnUse">
      <stop offset="0" stop-color="#24abff"/>
      <stop offset=".25" stop-color="#2bb1ff"/>
      <stop offset=".63" stop-color="#40c2ff"/>
      <stop offset="1" stop-color="#5bd9ff"/>
    </linearGradient>
    <linearGradient id="linear-gradient-47" x1="224.92" y1="900.87" x2="269.7" y2="356.3" gradientUnits="userSpaceOnUse">
      <stop offset="0" stop-color="#25adff"/>
      <stop offset=".25" stop-color="#2cb3ff"/>
      <stop offset=".64" stop-color="#41c4ff"/>
      <stop offset="1" stop-color="#5bd9ff"/>
    </linearGradient>
    <linearGradient id="linear-gradient-48" x1="228.58" y1="897.27" x2="270.32" y2="367.16" gradientUnits="userSpaceOnUse">
      <stop offset="0" stop-color="#27aeff"/>
      <stop offset=".26" stop-color="#2eb4ff"/>
      <stop offset=".65" stop-color="#43c5ff"/>
      <stop offset="1" stop-color="#5bd9ff"/>
    </linearGradient>
    <linearGradient id="linear-gradient-49" x1="232.21" y1="893.66" x2="271.02" y2="378.03" gradientUnits="userSpaceOnUse">
      <stop offset="0" stop-color="#29b0ff"/>
      <stop offset=".27" stop-color="#30b6ff"/>
      <stop offset=".67" stop-color="#45c7ff"/>
      <stop offset="1" stop-color="#5bd9ff"/>
    </linearGradient>
    <linearGradient id="linear-gradient-50" x1="235.82" y1="890.05" x2="271.8" y2="388.89" gradientUnits="userSpaceOnUse">
      <stop offset="0" stop-color="#2bb1ff"/>
      <stop offset=".28" stop-color="#32b7ff"/>
      <stop offset=".69" stop-color="#47c8ff"/>
      <stop offset="1" stop-color="#5bd9ff"/>
    </linearGradient>
    <linearGradient id="linear-gradient-51" x1="239.41" y1="886.44" x2="272.65" y2="399.76" gradientUnits="userSpaceOnUse">
      <stop offset="0" stop-color="#2cb3ff"/>
      <stop offset=".28" stop-color="#33b9ff"/>
      <stop offset=".7" stop-color="#48c9ff"/>
      <stop offset="1" stop-color="#5bd9ff"/>
    </linearGradient>
    <linearGradient id="linear-gradient-52" x1="242.97" y1="882.83" x2="273.59" y2="410.63" gradientUnits="userSpaceOnUse">
      <stop offset="0" stop-color="#2eb4ff"/>
      <stop offset=".29" stop-color="#35baff"/>
      <stop offset=".72" stop-color="#4acbff"/>
      <stop offset="1" stop-color="#5bd9ff"/>
    </linearGradient>
  </defs>
  <g>
    <path class="cls-6" d="M915.02,840.72l-77.57,5.02c-11.37.74-21.22-8.28-21.99-20.14l-14.28-220.48c-.77-11.86,7.83-22.07,19.21-22.81l77.57-5.02c11.37-.74,21.22,8.28,21.99,20.14l14.28,220.48c.77,11.86-7.83,22.07-19.21,22.81Z"/>
    <path class="cls-31" d="M915.96,840.1l-77.57,5.02c-11.37.74-21.22-8.28-21.99-20.14l-14.28-220.48c-.77-11.86,7.83-22.07,19.21-22.81l77.57-5.02c11.37-.74,21.22,8.28,21.99,20.14l14.28,220.48c.77,11.86-7.83,22.07-19.21,22.81Z"/>
    <path class="cls-37" d="M916.91,839.47l-77.57,5.02c-11.37.74-21.22-8.28-21.99-20.14l-14.28-220.48c-.77-11.86,7.83-22.07,19.21-22.81l77.57-5.02c11.37-.74,21.22,8.28,21.99,20.14l14.28,220.48c.77,11.86-7.83,22.07-19.21,22.81Z"/>
    <path class="cls-55" d="M917.85,838.84l-77.57,5.02c-11.37.74-21.22-8.28-21.99-20.14l-14.28-220.48c-.77-11.86,7.83-22.07,19.21-22.81l77.57-5.02c11.37-.74,21.22,8.28,21.99,20.14l14.28,220.48c.77,11.86-7.83,22.07-19.21,22.81Z"/>
    <path class="cls-14" d="M918.79,838.21l-77.57,5.02c-11.37.74-21.22-8.28-21.99-20.14l-14.28-220.48c-.77-11.86,7.83-22.07,19.21-22.81l77.57-5.02c11.37-.74,21.22,8.28,21.99,20.14l14.28,220.48c.77,11.86-7.83,22.07-19.21,22.81Z"/>
    <path class="cls-8" d="M919.74,837.58l-77.57,5.02c-11.37.74-21.22-8.28-21.99-20.14l-14.28-220.48c-.77-11.86,7.83-22.07,19.21-22.81l77.57-5.02c11.37-.74,21.22,8.28,21.99,20.14l14.28,220.48c.77,11.86-7.83,22.07-19.21,22.81Z"/>
    <path class="cls-35" d="M920.68,836.95l-77.57,5.02c-11.37.74-21.22-8.28-21.99-20.14l-14.28-220.48c-.77-11.86,7.83-22.07,19.21-22.81l77.57-5.02c11.37-.74,21.22,8.28,21.99,20.14l14.28,220.48c.77,11.86-7.83,22.07-19.21,22.81Z"/>
    <path class="cls-43" d="M921.62,836.32l-77.57,5.02c-11.37.74-21.22-8.28-21.99-20.14l-14.28-220.48c-.77-11.86,7.83-22.07,19.21-22.81l77.57-5.02c11.37-.74,21.22,8.28,21.99,20.14l14.28,220.48c.77,11.86-7.83,22.07-19.21,22.81Z"/>
    <path class="cls-38" d="M922.57,835.69l-77.57,5.02c-11.37.74-21.22-8.28-21.99-20.14l-14.28-220.48c-.77-11.86,7.83-22.07,19.21-22.81l77.57-5.02c11.37-.74,21.22,8.28,21.99,20.14l14.28,220.48c.77,11.86-7.83,22.07-19.21,22.81Z"/>
    <path class="cls-54" d="M923.51,835.06l-77.57,5.02c-11.37.74-21.22-8.28-21.99-20.14l-14.28-220.48c-.77-11.86,7.83-22.07,19.21-22.81l77.57-5.02c11.37-.74,21.22,8.28,21.99,20.14l14.28,220.48c.77,11.86-7.83,22.07-19.21,22.81Z"/>
    <path class="cls-12" d="M924.45,834.44l-77.57,5.02c-11.37.74-21.22-8.28-21.99-20.14l-14.28-220.48c-.77-11.86,7.83-22.07,19.21-22.81l77.57-5.02c11.37-.74,21.22,8.28,21.99,20.14l14.28,220.48c.77,11.86-7.83,22.07-19.21,22.81Z"/>
    <path class="cls-2" d="M925.4,833.81l-77.57,5.02c-11.37.74-21.22-8.28-21.99-20.14l-14.28-220.48c-.77-11.86,7.83-22.07,19.21-22.81l77.57-5.02c11.37-.74,21.22,8.28,21.99,20.14l14.28,220.48c.77,11.86-7.83,22.07-19.21,22.81Z"/>
    <path class="cls-19" d="M926.34,833.18l-77.57,5.02c-11.37.74-21.22-8.28-21.99-20.14l-14.28-220.48c-.77-11.86,7.83-22.07,19.21-22.81l77.57-5.02c11.37-.74,21.22,8.28,21.99,20.14l14.28,220.48c.77,11.86-7.83,22.07-19.21,22.81Z"/>
    <path class="cls-30" d="M927.28,832.55l-77.57,5.02c-11.37.74-21.22-8.28-21.99-20.14l-14.28-220.48c-.77-11.86,7.83-22.07,19.21-22.81l77.57-5.02c11.37-.74,21.22,8.28,21.99,20.14l14.28,220.48c.77,11.86-7.83,22.07-19.21,22.81Z"/>
    <path class="cls-11" d="M928.23,831.92l-77.57,5.02c-11.37.74-21.22-8.28-21.99-20.14l-14.28-220.48c-.77-11.86,7.83-22.07,19.21-22.81l77.57-5.02c11.37-.74,21.22,8.28,21.99,20.14l14.28,220.48c.77,11.86-7.83,22.07-19.21,22.81Z"/>
    <path class="cls-23" d="M929.17,831.29l-77.57,5.02c-11.37.74-21.22-8.28-21.99-20.14l-14.28-220.48c-.77-11.86,7.83-22.07,19.21-22.81l77.57-5.02c11.37-.74,21.22,8.28,21.99,20.14l14.28,220.48c.77,11.86-7.83,22.07-19.21,22.81Z"/>
    <path class="cls-3" d="M930.11,830.66l-77.57,5.02c-11.37.74-21.22-8.28-21.99-20.14l-14.28-220.48c-.77-11.86,7.83-22.07,19.21-22.81l77.57-5.02c11.37-.74,21.22,8.28,21.99,20.14l14.28,220.48c.77,11.86-7.83,22.07-19.21,22.81Z"/>
    <path class="cls-47" d="M931.06,830.03l-77.57,5.02c-11.37.74-21.22-8.28-21.99-20.14l-14.28-220.48c-.77-11.86,7.83-22.07,19.21-22.81l77.57-5.02c11.37-.74,21.22,8.28,21.99,20.14l14.28,220.48c.77,11.86-7.83,22.07-19.21,22.81Z"/>
    <path class="cls-4" d="M932,829.4l-77.57,5.02c-11.37.74-21.22-8.28-21.99-20.14l-14.28-220.48c-.77-11.86,7.83-22.07,19.21-22.81l77.57-5.02c11.37-.74,21.22,8.28,21.99,20.14l14.28,220.48c.77,11.86-7.83,22.07-19.21,22.81Z"/>
    <path class="cls-29" d="M932.94,828.77l-77.57,5.02c-11.37.74-21.22-8.28-21.99-20.14l-14.28-220.48c-.77-11.86,7.83-22.07,19.21-22.81l77.57-5.02c11.37-.74,21.22,8.28,21.99,20.14l14.28,220.48c.77,11.86-7.83,22.07-19.21,22.81Z"/>
    <path class="cls-7" d="M933.89,828.15l-77.57,5.02c-11.37.74-21.22-8.28-21.99-20.14l-14.28-220.48c-.77-11.86,7.83-22.07,19.21-22.81l77.57-5.02c11.37-.74,21.22,8.28,21.99,20.14l14.28,220.48c.77,11.86-7.83,22.07-19.21,22.81Z"/>
    <path class="cls-24" d="M934.83,827.52l-77.57,5.02c-11.37.74-21.22-8.28-21.99-20.14l-14.28-220.48c-.77-11.86,7.83-22.07,19.21-22.81l77.57-5.02c11.37-.74,21.22,8.28,21.99,20.14l14.28,220.48c.77,11.86-7.83,22.07-19.21,22.81Z"/>
    <path class="cls-20" d="M935.77,826.89l-77.57,5.02c-11.37.74-21.22-8.28-21.99-20.14l-14.28-220.48c-.77-11.86,7.83-22.07,19.21-22.81l77.57-5.02c11.37-.74,21.22,8.28,21.99,20.14l14.28,220.48c.77,11.86-7.83,22.07-19.21,22.81Z"/>
  </g>
  <path class="cls-34" d="M592.97,228.59c-12.04-30.17-42.49-50.62-76.62-48.41-34.13,2.21-61.69,26.42-69.74,57.89l3.16,48.79c-17.66.83-52.64,2.12-52.64,2.12l-1.54-23.72c-4.49-69.32,48.26-129.38,117.59-133.87,69.33-4.49,129.39,48.27,133.87,117.59l1.54,23.72-23.67,2.2c-.22.02-11.19,1.03-28.8,2.48l-3.16-48.79Z"/>
  <path class="cls-10" d="M602.73,276.83l-3.15-48.67c-12.04-30.17-42.49-50.62-76.62-48.41-1.11.07-2.2.23-3.3.35,32.77-.72,56.87,19.62,68.51,48.8l7.95,48.48c2.32-.19,4.52-.38,6.6-.55Z"/>
  <path class="cls-45" d="M513.19,131.38c-69.33,4.49-122.08,64.55-117.59,133.87l1.54,23.72s34.98-1.29,52.64-2.12l-.25-3.8c-17.51.78-46.4,1.85-46.4,1.85l.13-22.65c-4.27-65.89,44.28-122.87,110.17-127.14,65.9-4.27,122.98,45.87,127.24,111.76l1.46,22.55-22.49,2.09c-.2.02-9.15.84-23.75,2.06l.25,3.8c17.62-1.45,28.58-2.47,28.8-2.48l23.67-2.2-1.54-23.72c-4.49-69.32-64.54-122.08-133.87-117.59Z"/>
  <path class="cls-21" d="M895.98,659.99c-4.12-64.14-21-112.54-50.17-143.86,0,0,0,0-.01-.01-10.43-11.18-21.85-21.04-34.1-29.45,4.86-21.85,6.48-45.92,4.82-71.84-4.17-65-24.26-114.06-59.74-145.84-35.56-31.79-81.94-46.05-137.86-42.4l-279.92,18.28c-7.59.5-17.66,1.16-24.68,3.3-1.24.33-2.49.65-3.71,1.02-1.24.33-2.48.65-3.71,1.02-1.24.33-2.49.65-3.71,1.02-1.24.33-2.48.65-3.71,1.02-1.24.33-2.49.65-3.71,1.02-1.24.33-2.48.65-3.71,1.02-1.24.33-2.49.65-3.71,1.02-1.24.33-2.49.65-3.71,1.02-1.24.33-2.49.65-3.71,1.02-1.24.33-2.48.65-3.71,1.02-1.24.33-2.49.65-3.71,1.02-1.24.33-2.49.65-3.71,1.02-1.24.33-2.48.65-3.71,1.02-1.24.33-2.49.65-3.71,1.02-1.24.33-2.49.65-3.71,1.02-1.24.33-2.48.65-3.71,1.02-1.24.33-2.49.65-3.71,1.02-1.24.33-2.49.65-3.71,1.02-1.24.33-2.49.65-3.71,1.02-1.24.33-2.48.65-3.71,1.02-1.24.33-2.49.65-3.71,1.02-47.28,12.39-78.12,60.22-74.67,113.89l29.7,462.8c3.87,60.36,55.7,106.28,115.53,102.38l18.58-1.21c15.49-1.01,30.72-3.75,45.49-8.03,1.24-.33,2.48-.66,3.71-1.02,1.24-.34,2.48-.66,3.71-1.02,1.24-.34,2.48-.66,3.71-1.02,1.24-.34,2.48-.66,3.71-1.02,1.24-.34,2.48-.66,3.71-1.02,1.24-.33,2.47-.66,3.71-1.02,1.24-.33,2.48-.66,3.71-1.02,1.24-.34,2.48-.66,3.71-1.02,1.24-.34,2.48-.66,3.71-1.02,1.24-.34,2.48-.66,3.71-1.02,1.24-.34,2.48-.66,3.71-1.02,1.24-.33,2.47-.66,3.71-1.02,1.24-.33,2.48-.66,3.71-1.02,1.24-.34,2.48-.66,3.71-1.02,1.24-.34,2.48-.66,3.71-1.02,1.24-.34,2.48-.66,3.71-1.02,1.24-.34,2.48-.66,3.71-1.02,1.24-.34,2.48-.66,3.71-1.02,1.24-.33,2.47-.66,3.7-1.02,1.24-.34,2.48-.66,3.71-1.02,1.24-.34,2.48-.66,3.71-1.02,20.32-5.5,39.78-13.97,57.74-25.24l10.86,5.34c49.19,24.18,103.58,28.59,152.78,14.63,1.24-.33,2.48-.67,3.71-1.02,1.24-.33,2.48-.67,3.71-1.02,1.24-.33,2.47-.67,3.71-1.02,1.24-.33,2.48-.67,3.71-1.02,1.24-.33,2.47-.67,3.71-1.02,1.24-.33,2.47-.67,3.71-1.02,1.24-.33,2.48-.67,3.71-1.02,1.24-.33,2.48-.67,3.71-1.02,1.24-.33,2.47-.67,3.71-1.02,1.24-.33,2.47-.67,3.71-1.02,1.24-.33,2.48-.67,3.72-1.02,1.24-.33,2.47-.67,3.7-1.02,1.24-.33,2.48-.67,3.71-1.02,1.24-.33,2.48-.67,3.71-1.02,1.24-.33,2.47-.67,3.71-1.02,1.24-.33,2.47-.67,3.71-1.02,1.24-.33,2.48-.67,3.71-1.02,1.24-.33,2.48-.67,3.71-1.02,1.24-.33,2.47-.67,3.7-1.02,1.24-.33,2.48-.67,3.71-1.02,1.24-.33,2.47-.67,3.71-1.02,29.89-7.88,57.99-22.44,81.96-43.53,3.15-2.78,6.23-5.65,9.24-8.61,42.47-41.92,61.5-102.21,56.56-179.19Z"/>
  <path class="cls-46" d="M402.81,925.01l-18.75,1.21c-60.36,3.91-112.65-42.01-116.56-102.38l-29.96-462.8c-3.91-60.36,39.38-112.48,96.49-116.18l282.41-18.28c56.42-3.65,103.21,10.61,139.08,42.4,35.79,31.78,56.06,80.85,60.27,145.84,1.68,25.92.04,49.99-4.86,71.84,12.36,8.41,23.88,18.27,34.4,29.45,0,0,.01.01.01.01,29.44,31.32,46.47,79.72,50.62,143.86,4.98,76.98-14.21,137.27-57.06,179.19-3.03,2.96-6.14,5.83-9.32,8.61-63.22,55.11-154.72,66.06-233.09,27.88l-40.69-19.83-41.21,29.38c-32.86,23.42-71.51,37.18-111.79,39.79Z"/>
  <path class="cls-39" d="M845.35,516.13s0,0-.01-.01c-10.53-11.18-22.04-21.04-34.4-29.45,4.9-21.85,6.54-45.92,4.86-71.84-4.21-65-24.48-114.06-60.27-145.84-35.87-31.79-82.67-46.05-139.08-42.4l-282.41,18.28c-57.11,3.7-100.4,55.82-96.49,116.18l29.96,462.8c3.91,60.36,56.2,106.28,116.56,102.38l18.75-1.21c40.27-2.61,78.93-16.37,111.79-39.79l41.21-29.38,40.69,19.83c78.37,38.18,169.87,27.23,233.09-27.88,3.18-2.78,6.29-5.65,9.32-8.61,42.85-41.92,62.05-102.21,57.06-179.19-4.15-64.14-21.18-112.54-50.62-143.86ZM831.1,831.4c-2.94,2.87-5.96,5.66-9.05,8.36-61.38,53.51-150.22,64.14-226.31,27.07l-39.5-19.25-40.01,28.52c-31.9,22.74-69.43,36.1-108.54,38.63l-18.2,1.18c-58.6,3.79-109.37-40.79-113.17-99.4l-29.09-449.33c-3.79-58.6,38.23-109.21,93.68-112.8l274.19-17.75c54.77-3.55,100.21,10.3,135.04,41.17,34.75,30.86,54.43,78.49,58.52,141.6,1.63,25.17.04,48.53-4.72,69.75,12,8.16,23.18,17.74,33.4,28.59,0,0,.01.01.01.01,28.58,30.41,45.11,77.4,49.15,139.68,4.84,74.74-13.8,133.28-55.4,173.98Z"/>
  <path class="cls-53" d="M845.34,516.12c-10.53-11.18-22.04-21.04-34.4-29.45,0-.03.01-.06.02-.08l-505.27,32.71c-31.84,2.06-55.99,29.55-53.92,61.39l15.74,243.16c3.91,60.45,56.1,106.29,116.55,102.38l18.75-1.21c40.27-2.61,78.93-16.37,111.79-39.79l41.21-29.38,40.69,19.83c78.37,38.18,169.87,27.23,233.09-27.88,3.18-2.78,6.29-5.65,9.32-8.61,42.85-41.92,62.05-102.21,57.06-179.19-4.15-64.14-21.18-112.54-50.62-143.86,0,0,0,0-.01-.01Z"/>
  <path class="cls-51" d="M555.81,855.86l-14.82-9.82c-6.99-4.63-171.21-115.03-180.55-259.28-6.8-105.1,64.36-189.3,165.54-195.85,104.5-6.77,182.38,64.32,189.41,172.87,9.63,148.7-139.58,275.35-145.94,280.67l-13.64,11.41Z"/>
  <path class="cls-25" d="M542.72,649.69c-44.13,2.86-82.35-30.72-85.21-74.85-2.86-44.12,30.72-82.35,74.85-85.21,44.13-2.86,82.35,30.72,85.21,74.85,2.86,44.12-30.72,82.35-74.85,85.21Z"/>
  <g>
    <path class="cls-49" d="M236.66,872.47l-75.83,4.91c-11.12.72-20.76-8.31-21.53-20.17l-14.28-220.48c-.77-11.86,7.63-22.06,18.75-22.78l75.83-4.91c11.12-.72,20.76,8.31,21.53,20.17l14.28,220.48c.77,11.86-7.63,22.06-18.75,22.78Z"/>
    <path class="cls-15" d="M239.49,872.16l-75.83,4.91c-11.12.72-20.76-8.31-21.53-20.17l-14.28-220.48c-.77-11.86,7.63-22.06,18.75-22.78l75.83-4.91c11.12-.72,20.76,8.31,21.53,20.17l14.28,220.48c.77,11.86-7.63,22.06-18.75,22.78Z"/>
    <path class="cls-28" d="M242.32,871.84l-75.83,4.91c-11.12.72-20.76-8.31-21.53-20.17l-14.28-220.48c-.77-11.86,7.63-22.06,18.75-22.78l75.83-4.91c11.12-.72,20.76,8.31,21.53,20.17l14.28,220.48c.77,11.86-7.63,22.06-18.75,22.78Z"/>
    <path class="cls-5" d="M245.15,871.53l-75.83,4.91c-11.12.72-20.76-8.31-21.53-20.17l-14.28-220.48c-.77-11.86,7.63-22.06,18.75-22.78l75.83-4.91c11.12-.72,20.76,8.31,21.53,20.17l14.28,220.48c.77,11.86-7.63,22.06-18.75,22.78Z"/>
    <path class="cls-16" d="M247.98,871.21l-75.83,4.91c-11.12.72-20.76-8.31-21.53-20.17l-14.28-220.48c-.77-11.86,7.63-22.06,18.75-22.78l75.83-4.91c11.12-.72,20.76,8.31,21.53,20.17l14.28,220.48c.77,11.86-7.63,22.06-18.75,22.78Z"/>
    <path class="cls-26" d="M250.81,870.9l-75.83,4.91c-11.12.72-20.76-8.31-21.53-20.17l-14.28-220.48c-.77-11.86,7.63-22.06,18.75-22.78l75.83-4.91c11.12-.72,20.76,8.31,21.53,20.17l14.28,220.48c.77,11.86-7.63,22.06-18.75,22.78Z"/>
    <path class="cls-40" d="M253.64,870.58l-75.83,4.91c-11.12.72-20.76-8.31-21.53-20.17l-14.28-220.48c-.77-11.86,7.63-22.06,18.75-22.78l75.83-4.91c11.12-.72,20.76,8.31,21.53,20.17l14.28,220.48c.77,11.86-7.63,22.06-18.75,22.78Z"/>
    <path class="cls-56" d="M256.47,870.27l-75.83,4.91c-11.12.72-20.76-8.31-21.53-20.17l-14.28-220.48c-.77-11.86,7.63-22.06,18.75-22.78l75.83-4.91c11.12-.72,20.76,8.31,21.53,20.17l14.28,220.48c.77,11.86-7.63,22.06-18.75,22.78Z"/>
    <path class="cls-1" d="M259.3,869.96l-75.83,4.91c-11.12.72-20.76-8.31-21.53-20.17l-14.28-220.48c-.77-11.86,7.63-22.06,18.75-22.78l75.83-4.91c11.12-.72,20.76,8.31,21.53,20.17l14.28,220.48c.77,11.86-7.63,22.06-18.75,22.78Z"/>
    <path class="cls-36" d="M262.13,869.64l-75.83,4.91c-11.12.72-20.76-8.31-21.53-20.17l-14.28-220.48c-.77-11.86,7.63-22.06,18.75-22.78l75.83-4.91c11.12-.72,20.76,8.31,21.53,20.17l14.28,220.48c.77,11.86-7.63,22.06-18.75,22.78Z"/>
    <path class="cls-18" d="M264.96,869.33l-75.83,4.91c-11.12.72-20.76-8.31-21.53-20.17l-14.28-220.48c-.77-11.86,7.63-22.06,18.75-22.78l75.83-4.91c11.12-.72,20.76,8.31,21.53,20.17l14.28,220.48c.77,11.86-7.63,22.06-18.75,22.78Z"/>
    <path class="cls-17" d="M267.79,869.01l-75.83,4.91c-11.12.72-20.76-8.31-21.53-20.17l-14.28-220.48c-.77-11.86,7.63-22.06,18.75-22.78l75.83-4.91c11.12-.72,20.76,8.31,21.53,20.17l14.28,220.48c.77,11.86-7.63,22.06-18.75,22.78Z"/>
    <path class="cls-9" d="M270.62,868.7l-75.83,4.91c-11.12.72-20.76-8.31-21.53-20.17l-14.28-220.48c-.77-11.86,7.63-22.06,18.75-22.78l75.83-4.91c11.12-.72,20.76,8.31,21.53,20.17l14.28,220.48c.77,11.86-7.63,22.06-18.75,22.78Z"/>
    <path class="cls-22" d="M273.45,868.38l-75.83,4.91c-11.12.72-20.76-8.31-21.53-20.17l-14.28-220.48c-.77-11.86,7.63-22.06,18.75-22.78l75.83-4.91c11.12-.72,20.76,8.31,21.53,20.17l14.28,220.48c.77,11.86-7.63,22.06-18.75,22.78Z"/>
    <path class="cls-50" d="M276.28,868.07l-75.83,4.91c-11.12.72-20.76-8.31-21.53-20.17l-14.28-220.48c-.77-11.86,7.63-22.06,18.75-22.78l75.83-4.91c11.12-.72,20.76,8.31,21.53,20.17l14.28,220.48c.77,11.86-7.63,22.06-18.75,22.78Z"/>
    <path class="cls-33" d="M279.11,867.75l-75.83,4.91c-11.12.72-20.76-8.31-21.53-20.17l-14.28-220.48c-.77-11.86,7.63-22.06,18.75-22.78l75.83-4.91c11.12-.72,20.76,8.31,21.53,20.17l14.28,220.48c.77,11.86-7.63,22.06-18.75,22.78Z"/>
    <path class="cls-52" d="M281.94,867.44l-75.83,4.91c-11.12.72-20.76-8.31-21.53-20.17l-14.28-220.48c-.77-11.86,7.63-22.06,18.75-22.78l75.83-4.91c11.12-.72,20.76,8.31,21.53,20.17l14.28,220.48c.77,11.86-7.63,22.06-18.75,22.78Z"/>
    <path class="cls-44" d="M284.77,867.12l-75.83,4.91c-11.12.72-20.76-8.31-21.53-20.17l-14.28-220.48c-.77-11.86,7.63-22.06,18.75-22.78l75.83-4.91c11.12-.72,20.76,8.31,21.53,20.17l14.28,220.48c.77,11.86-7.63,22.06-18.75,22.78Z"/>
    <path class="cls-41" d="M287.6,866.81l-75.83,4.91c-11.12.72-20.76-8.31-21.53-20.17l-14.28-220.48c-.77-11.86,7.63-22.06,18.75-22.78l75.83-4.91c11.12-.72,20.76,8.31,21.53,20.17l14.28,220.48c.77,11.86-7.63,22.06-18.75,22.78Z"/>
    <path class="cls-42" d="M290.43,866.5l-75.83,4.91c-11.12.72-20.76-8.31-21.53-20.17l-14.28-220.48c-.77-11.86,7.63-22.06,18.75-22.78l75.83-4.91c11.12-.72,20.76,8.31,21.53,20.17l14.28,220.48c.77,11.86-7.63,22.06-18.75,22.78Z"/>
    <path class="cls-27" d="M293.26,866.18l-75.83,4.91c-11.12.72-20.76-8.31-21.53-20.17l-14.28-220.48c-.77-11.86,7.63-22.06,18.75-22.78l75.83-4.91c11.12-.72,20.76,8.31,21.53,20.17l14.28,220.48c.77,11.86-7.63,22.06-18.75,22.78Z"/>
    <path class="cls-48" d="M296.09,865.87l-75.83,4.91c-11.12.72-20.76-8.31-21.53-20.17l-14.28-220.48c-.77-11.86,7.63-22.06,18.75-22.78l75.83-4.91c11.12-.72,20.76,8.31,21.53,20.17l14.28,220.48c.77,11.86-7.63,22.06-18.75,22.78Z"/>
    <path class="cls-32" d="M298.92,865.55l-75.83,4.91c-11.12.72-20.76-8.31-21.53-20.17l-14.28-220.48c-.77-11.86,7.63-22.06,18.75-22.78l75.83-4.91c11.12-.72,20.76,8.31,21.53,20.17l14.28,220.48c.77,11.86-7.63,22.06-18.75,22.78Z"/>
  </g>
  <path class="cls-13" d="M298.92,868.12l-75.83,4.91c-11.12.72-20.76-8.31-21.53-20.17l-14.28-220.48c-.77-11.86,7.63-22.06,18.75-22.78l75.83-4.91c11.12-.72,20.76,8.31,21.53,20.17l14.28,220.48c.77,11.86-7.63,22.06-18.75,22.78Z"/>
  <path class="cls-13" d="M935.77,826.89l-77.57,5.02c-11.37.74-21.22-8.28-21.99-20.14l-14.28-220.48c-.77-11.86,7.83-22.07,19.21-22.81l77.57-5.02c11.37-.74,21.22,8.28,21.99,20.14l14.28,220.48c.77,11.86-7.83,22.07-19.21,22.81Z"/>
</svg>