<?xml version="1.0" encoding="UTF-8"?>
<svg id="Layer_1" data-name="Layer 1" xmlns="http://www.w3.org/2000/svg" viewBox="0 0 1080 1080">
  <defs>
    <style>
      .cls-1 {
        stroke-width: 0px;
      }
    </style>
  </defs>
  <path class="cls-1" d="M0,382.31h122.29c24.21,0,42.26,1.01,54.15,3.02,11.9,2.02,22.54,6.23,31.93,12.63,9.39,6.4,17.22,14.92,23.48,25.56,6.26,10.64,9.39,22.57,9.39,35.79,0,14.33-3.86,27.48-11.58,39.44-7.72,11.97-18.19,20.94-31.41,26.92,18.64,5.43,32.97,14.68,42.99,27.76,10.02,13.08,15.03,28.45,15.03,46.12,0,13.91-3.23,27.44-9.7,40.59-6.47,13.15-15.31,23.65-26.5,31.51-11.2,7.86-25.01,12.7-41.42,14.5-10.3,1.12-35.13,1.81-74.5,2.09h-29.51c-41.21,0-74.62-33.41-74.62-74.62v-231.31ZM61.77,433.23v70.74h40.49c24.07,0,39.02-.35,44.87-1.04,10.57-1.25,18.88-4.9,24.94-10.96,6.05-6.05,9.08-14.01,9.08-23.89s-2.61-17.15-7.82-23.06c-5.22-5.91-12.98-9.49-23.27-10.75-6.12-.69-23.72-1.04-52.8-1.04h-35.48ZM61.77,554.89v45c0,20.33,16.48,36.8,36.8,36.8h20.38c22.26,0,36.38-.62,42.36-1.88,9.18-1.67,16.66-5.74,22.44-12.21,5.77-6.47,8.66-15.13,8.66-25.98,0-9.18-2.23-16.97-6.68-23.37-4.46-6.4-10.89-11.06-19.3-13.98-8.42-2.92-26.68-4.38-54.78-4.38h-49.87Z"/>
  <path class="cls-1" d="M417.5,622.14l58.43,9.81c-7.52,21.43-19.38,37.74-35.58,48.94-16.21,11.2-36.48,16.8-60.83,16.8-38.54,0-67.06-12.59-85.56-37.77-14.61-20.17-21.91-45.63-21.91-76.38,0-36.73,9.6-65.49,28.8-86.29,19.2-20.8,43.47-31.2,72.83-31.2,32.97,0,58.98,10.89,78.05,32.66,19.06,21.78,28.18,55.13,27.34,100.07h-146.92c.42,17.39,5.15,30.92,14.19,40.59,9.04,9.67,20.31,14.5,33.8,14.5,9.18,0,16.9-2.5,23.16-7.51,6.26-5.01,10.99-13.08,14.19-24.21ZM420.84,562.88c-.41-16.97-4.8-29.87-13.14-38.71-8.35-8.83-18.51-13.25-30.47-13.25-12.8,0-23.37,4.66-31.72,13.98-8.35,9.32-12.45,21.99-12.31,37.98h87.64Z"/>
  <path class="cls-1" d="M506.64,436.57v-54.26h58.64v54.26h-58.64ZM506.64,688.24v-162.98c0-32.39,26.25-58.64,58.64-58.64h0v221.62h-58.64Z"/>
  <path class="cls-1" d="M586.93,574.3c0-19.47,4.8-38.33,14.4-56.55,9.6-18.22,23.2-32.14,40.8-41.74,17.6-9.6,37.25-14.4,58.96-14.4,33.53,0,61,10.89,82.43,32.66,21.42,21.78,32.14,49.29,32.14,82.54s-10.82,61.32-32.45,83.37c-21.64,22.05-48.87,33.08-81.7,33.08-20.31,0-39.69-4.59-58.12-13.77-18.44-9.18-32.45-22.64-42.05-40.38-9.6-17.74-14.4-39.33-14.4-64.8ZM647.03,577.43c0,21.99,5.21,38.82,15.65,50.5,10.43,11.69,23.3,17.53,38.6,17.53s28.14-5.84,38.5-17.53c10.36-11.69,15.55-28.66,15.55-50.92s-5.18-38.4-15.55-50.08c-10.37-11.69-23.2-17.53-38.5-17.53s-28.17,5.84-38.6,17.53c-10.44,11.69-15.65,28.52-15.65,50.5Z"/>
  <path class="cls-1" d="M837.3,688.24v-305.93h0c37.34,0,72,19.41,91.51,51.25l93.8,153.06v-204.3h57.39v304.06c0,1.04-.84,1.88-1.88,1.88h0c-37.36,0-72.06-19.34-91.71-51.12l-91.73-148.38v199.5h-57.39Z"/>
</svg>