<svg xmlns="http://www.w3.org/2000/svg" xmlns:xlink="http://www.w3.org/1999/xlink" width="50" zoomAndPan="magnify" viewBox="0 0 37.5 37.499999" height="50" preserveAspectRatio="xMidYMid meet" version="1.0"><defs><clipPath id="cd01e9e488"><path d="M 0 0 L 37.007812 0 L 37.007812 37.007812 L 0 37.007812 Z M 0 0 " clip-rule="nonzero"/></clipPath><clipPath id="9be5ca7436"><path d="M 0 0 L 31.128906 0 L 31.128906 2.503906 L 0 2.503906 Z M 0 0 " clip-rule="nonzero"/></clipPath><clipPath id="af3d320675"><path d="M -1.527344 -0.371094 C 11.75 -11.570312 15.789062 -13.070312 19.371094 -13.878906 C 22.484375 -14.6875 26.527344 -15.496094 28.488281 -14.574219 C 29.757812 -13.996094 30.796875 -12.609375 31.03125 -11.457031 C 31.261719 -10.300781 31.03125 -8.800781 29.992188 -7.761719 C 27.449219 -5.335938 15.675781 -5.453125 10.363281 -3.953125 C 6.554688 -2.914062 2.050781 0.203125 0.898438 -0.488281 C 0.4375 -0.835938 0.4375 -2.105469 0.78125 -2.679688 C 1.128906 -3.257812 2.515625 -3.835938 3.207031 -3.71875 C 4.015625 -3.488281 5.167969 -2.335938 5.167969 -1.640625 C 5.167969 -1.066406 4.246094 -0.0273438 3.667969 0.0898438 C 2.976562 0.203125 1.476562 -0.835938 1.359375 -1.527344 C 1.242188 -2.105469 2.398438 -3.488281 2.976562 -3.71875 C 3.554688 -3.835938 4.359375 -3.488281 4.707031 -3.027344 C 5.054688 -2.566406 5.285156 -1.296875 4.824219 -0.71875 C 4.128906 0.0898438 0.898438 0.550781 -0.257812 0.320312 C -1.066406 0.203125 -1.757812 -0.140625 -1.988281 -0.71875 C -2.105469 -1.410156 -1.179688 -3.257812 -0.257812 -4.066406 C 0.667969 -4.992188 1.707031 -5.222656 3.667969 -5.796875 C 7.941406 -7.300781 22.949219 -11.339844 26.066406 -10.761719 C 26.875 -10.648438 27.566406 -9.839844 27.679688 -9.839844 C 27.679688 -9.953125 26.988281 -11.109375 26.296875 -11.339844 C 25.140625 -11.800781 22.601562 -11.222656 20.523438 -10.648438 C 17.523438 -9.839844 13.597656 -8.570312 10.363281 -6.605469 C 6.785156 -4.414062 2.515625 2.050781 0.320312 2.398438 C -0.601562 2.628906 -1.527344 2.050781 -1.875 1.589844 C -2.105469 1.128906 -1.527344 -0.371094 -1.527344 -0.371094 " clip-rule="nonzero"/></clipPath><clipPath id="98627c55a4"><path d="M 0 0 L 11.457031 0 L 11.457031 11.691406 L 0 11.691406 Z M 0 0 " clip-rule="nonzero"/></clipPath><clipPath id="3b378329c0"><path d="M 10.59375 -2.566406 C 1.707031 4.359375 -0.488281 10.480469 -2.449219 11.171875 C -3.488281 11.632812 -4.757812 11.171875 -5.335938 10.480469 C -6.03125 9.554688 -5.796875 7.132812 -5.105469 5.167969 C -4.183594 2.398438 0.0898438 -2.796875 1.820312 -4.066406 C 2.515625 -4.527344 2.976562 -4.757812 3.554688 -4.644531 C 4.128906 -4.527344 5.167969 -3.605469 5.167969 -2.914062 C 5.285156 -2.335938 4.59375 -1.179688 4.015625 -0.835938 C 3.4375 -0.601562 2.628906 -0.71875 2.167969 -1.066406 C 1.707031 -1.410156 1.242188 -2.105469 1.242188 -2.679688 C 1.242188 -3.375 2.050781 -4.414062 2.746094 -4.644531 C 3.207031 -4.757812 4.128906 -4.644531 4.476562 -4.183594 C 4.9375 -3.71875 5.285156 -2.796875 5.054688 -1.875 C 4.59375 0.203125 -0.601562 4.359375 -1.640625 6.785156 C -2.21875 8.285156 -1.527344 10.132812 -2.105469 10.941406 C -2.449219 11.402344 -3.257812 11.75 -3.835938 11.519531 C -4.414062 11.289062 -5.335938 9.902344 -5.222656 8.746094 C -5.105469 6.554688 -1.527344 2.28125 1.011719 -0.140625 C 3.320312 -2.566406 7.363281 -5.796875 9.210938 -5.914062 C 10.132812 -5.914062 11.171875 -5.453125 11.402344 -4.875 C 11.519531 -4.296875 10.59375 -2.566406 10.59375 -2.566406 " clip-rule="nonzero"/></clipPath><clipPath id="aaf004fb9e"><path d="M 0 0 L 7.386719 0 L 7.386719 33.242188 L 0 33.242188 Z M 0 0 " clip-rule="nonzero"/></clipPath><clipPath id="030e8dac8e"><path d="M 7.015625 1.589844 C -5.683594 15.445312 -3.144531 16.136719 -2.566406 17.984375 C -1.757812 20.40625 -1.988281 25.601562 -2.105469 27.796875 C -2.21875 28.953125 -2.335938 29.527344 -2.796875 30.335938 C -3.375 31.261719 -4.527344 32.414062 -5.566406 32.761719 C -6.722656 33.222656 -8.222656 33.222656 -9.378906 32.761719 C -10.53125 32.414062 -11.457031 31.605469 -12.261719 30.335938 C -13.417969 28.027344 -13.996094 21.679688 -13.765625 19.136719 C -13.648438 17.636719 -13.300781 16.714844 -12.726562 15.90625 C -12.03125 14.980469 -10.878906 14.175781 -9.839844 13.941406 C -8.800781 13.597656 -7.414062 13.710938 -6.492188 14.058594 C -5.453125 14.519531 -4.296875 15.214844 -3.835938 16.253906 C -3.144531 17.523438 -2.914062 19.945312 -3.488281 21.332031 C -4.183594 22.71875 -6.03125 24.101562 -7.53125 24.449219 C -9.03125 24.679688 -11.222656 23.871094 -12.261719 22.832031 C -13.300781 21.679688 -13.878906 19.371094 -13.648438 17.984375 C -13.535156 16.828125 -12.726562 15.675781 -11.917969 14.980469 C -11.109375 14.289062 -9.839844 13.828125 -8.683594 13.710938 C -7.644531 13.710938 -6.261719 14.058594 -5.453125 14.636719 C -4.527344 15.214844 -3.835938 16.019531 -3.375 17.40625 C -2.335938 19.945312 -1.527344 27.679688 -2.796875 30.335938 C -3.605469 31.953125 -5.453125 32.875 -6.835938 33.109375 C -7.992188 33.339844 -9.492188 32.875 -10.53125 32.183594 C -11.457031 31.492188 -12.261719 30.566406 -12.609375 29.066406 C -13.417969 26.757812 -11.6875 21.5625 -12.261719 18.675781 C -12.726562 16.484375 -14.6875 14.980469 -14.804688 13.136719 C -15.035156 11.519531 -14.804688 10.25 -13.765625 8.515625 C -11.570312 4.707031 -2.105469 -4.875 1.820312 -5.566406 C 3.785156 -6.03125 6.09375 -4.992188 6.902344 -3.835938 C 7.707031 -2.566406 7.015625 1.589844 7.015625 1.589844 " clip-rule="nonzero"/></clipPath><clipPath id="74b517aa38"><path d="M 0 27.660156 L 1.992188 27.660156 L 1.992188 37.007812 L 0 37.007812 Z M 0 27.660156 " clip-rule="nonzero"/></clipPath><clipPath id="cdbf6ee75f"><path d="M -1.066406 30.683594 C 1.9375 41.535156 1.9375 42.457031 1.476562 43.265625 C 1.128906 44.191406 0.203125 45.113281 -0.601562 45.574219 C -1.527344 46.039062 -2.679688 46.269531 -3.71875 46.039062 C -4.875 45.691406 -6.722656 44.535156 -7.300781 43.265625 C -7.875 42.113281 -7.644531 39.917969 -6.953125 38.765625 C -6.261719 37.609375 -4.414062 36.457031 -3.144531 36.457031 C -1.757812 36.339844 0.203125 37.261719 1.011719 38.300781 C 1.820312 39.457031 2.167969 41.535156 1.707031 42.804688 C 1.242188 44.074219 -0.257812 45.574219 -1.640625 45.921875 C -2.914062 46.269531 -4.757812 46.039062 -6.03125 44.882812 C -8.105469 43.152344 -9.953125 35.761719 -10.070312 32.992188 C -10.183594 31.605469 -9.953125 30.683594 -9.378906 29.757812 C -8.800781 28.953125 -7.644531 28.144531 -6.605469 27.796875 C -5.683594 27.566406 -4.296875 27.679688 -3.375 28.144531 C -2.449219 28.605469 -1.066406 30.683594 -1.066406 30.683594 " clip-rule="nonzero"/></clipPath><clipPath id="a65ab6ce03"><path d="M 0 34.566406 L 2.527344 34.566406 L 2.527344 37.007812 L 0 37.007812 Z M 0 34.566406 " clip-rule="nonzero"/></clipPath><clipPath id="9f89d2fae3"><path d="M 2.515625 39.457031 C -0.601562 43.960938 -2.679688 44.191406 -3.835938 43.730469 C -4.992188 43.265625 -6.375 41.652344 -6.605469 40.378906 C -6.953125 39.109375 -6.375 37.148438 -5.453125 36.222656 C -4.644531 35.300781 -2.679688 34.609375 -1.410156 34.839844 C -0.140625 35.070312 1.589844 36.339844 2.050781 37.496094 C 2.628906 38.648438 2.515625 40.726562 1.820312 41.765625 C 1.128906 42.921875 -0.71875 43.84375 -1.875 44.074219 C -2.914062 44.191406 -3.953125 43.84375 -4.757812 43.265625 C -5.683594 42.457031 -6.605469 40.613281 -6.722656 39.457031 C -6.835938 38.300781 -6.492188 37.03125 -5.683594 36.339844 C -4.875 35.417969 -3.027344 34.609375 -1.757812 34.609375 C -0.71875 34.609375 0.550781 35.300781 1.242188 35.992188 C 1.9375 36.800781 2.515625 38.996094 2.515625 38.996094 " clip-rule="nonzero"/></clipPath><clipPath id="6326aa0378"><path d="M 0 31.5625 L 2.226562 31.5625 L 2.226562 37.007812 L 0 37.007812 Z M 0 31.5625 " clip-rule="nonzero"/></clipPath><clipPath id="040af1c782"><path d="M -2.914062 40.957031 C -7.414062 37.839844 -7.644531 35.761719 -7.183594 34.609375 C -6.722656 33.339844 -5.105469 32.070312 -3.835938 31.722656 C -2.566406 31.492188 -0.601562 32.070312 0.320312 32.875 C 1.242188 33.800781 1.9375 35.761719 1.707031 37.03125 C 1.476562 38.300781 0.203125 39.917969 -0.949219 40.496094 C -2.105469 40.957031 -4.183594 40.957031 -5.222656 40.265625 C -6.375 39.574219 -7.300781 37.726562 -7.53125 36.570312 C -7.644531 35.53125 -7.300781 34.492188 -6.722656 33.683594 C -5.914062 32.761719 -4.066406 31.722656 -2.914062 31.605469 C -1.757812 31.492188 -0.488281 31.953125 0.320312 32.53125 C 1.128906 33.222656 1.820312 34.378906 2.050781 35.300781 C 2.28125 36.339844 2.167969 37.726562 1.476562 38.648438 C 0.898438 39.574219 -2.105469 40.957031 -2.105469 40.957031 " clip-rule="nonzero"/></clipPath><clipPath id="9f58b78cd8"><path d="M 0 36.765625 L 3.855469 36.765625 L 3.855469 37.007812 L 0 37.007812 Z M 0 36.765625 " clip-rule="nonzero"/></clipPath><clipPath id="cbae7d4cad"><path d="M 1.9375 38.300781 C 3.898438 43.265625 3.4375 44.304688 2.746094 45 C 1.9375 45.808594 -0.0273438 46.730469 -1.296875 46.613281 C -2.566406 46.5 -4.296875 45.34375 -4.992188 44.191406 C -5.566406 43.035156 -5.566406 40.957031 -4.992188 39.804688 C -4.414062 38.648438 -2.679688 37.496094 -1.410156 37.378906 C -0.140625 37.261719 1.820312 37.957031 2.746094 38.996094 C 3.554688 39.917969 4.015625 41.996094 3.667969 43.265625 C 3.320312 44.421875 1.9375 46.039062 0.667969 46.382812 C -0.71875 46.84375 -3.375 46.039062 -4.644531 45.113281 C -5.566406 44.421875 -6.144531 43.265625 -6.261719 42.226562 C -6.375 41.1875 -6.144531 39.804688 -5.566406 38.878906 C -4.992188 37.957031 -3.835938 37.148438 -2.914062 36.917969 C -1.875 36.570312 0.4375 37.148438 0.4375 37.148438 " clip-rule="nonzero"/></clipPath><clipPath id="a6a171498f"><path d="M 0 35.949219 L 5.304688 35.949219 L 5.304688 37.007812 L 0 37.007812 Z M 0 35.949219 " clip-rule="nonzero"/></clipPath><clipPath id="cb4a5590e7"><path d="M 5.285156 39.109375 C 5.054688 42.457031 3.898438 44.191406 2.746094 44.769531 C 1.589844 45.230469 -0.488281 44.882812 -1.527344 44.421875 C -2.335938 44.191406 -2.796875 43.613281 -3.144531 42.921875 C -3.605469 41.882812 -3.71875 39.6875 -3.375 38.648438 C -3.144531 37.839844 -2.566406 37.378906 -1.988281 36.917969 C -1.410156 36.457031 -0.835938 35.992188 -0.0273438 35.992188 C 1.128906 35.878906 4.128906 37.261719 4.128906 37.261719 " clip-rule="nonzero"/></clipPath><clipPath id="1f09c271a4"><path d="M 14.519531 23.523438 L 37.007812 23.523438 L 37.007812 37.007812 L 14.519531 37.007812 Z M 14.519531 23.523438 " clip-rule="nonzero"/></clipPath><clipPath id="026b0ffbe9"><path d="M 21.5625 41.417969 C 30.914062 40.148438 34.492188 37.496094 36.6875 35.648438 C 38.1875 34.261719 39.339844 33.109375 40.265625 31.492188 C 41.1875 29.875 41.074219 27.335938 41.996094 26.066406 C 42.691406 25.027344 43.613281 24.332031 44.652344 23.988281 C 45.574219 23.523438 46.960938 23.410156 48 23.871094 C 49.269531 24.332031 51 26.066406 51.464844 27.335938 C 51.925781 28.375 51.808594 29.644531 51.464844 30.683594 C 51 31.722656 50.308594 32.761719 49.269531 33.339844 C 48.117188 33.914062 45.691406 34.261719 44.421875 33.683594 C 43.035156 33.222656 41.535156 31.375 41.304688 29.875 C 40.957031 28.488281 41.882812 26.179688 42.691406 25.140625 C 43.496094 24.332031 44.652344 23.757812 45.691406 23.640625 C 46.730469 23.523438 48.117188 23.640625 49.039062 24.332031 C 50.195312 25.027344 51.464844 26.757812 51.695312 28.488281 C 52.039062 30.335938 51.234375 32.992188 50.195312 35.183594 C 48.921875 37.839844 46.5 40.613281 43.613281 42.921875 C 40.035156 46.039062 33.339844 49.847656 29.414062 51.117188 C 26.875 51.808594 24.910156 51.808594 22.832031 51.578125 C 20.871094 51.347656 18.445312 50.65625 17.058594 49.617188 C 15.90625 48.691406 14.75 47.308594 14.636719 46.039062 C 14.519531 44.769531 15.214844 42.691406 16.253906 41.996094 C 17.40625 41.074219 21.5625 41.417969 21.5625 41.417969 " clip-rule="nonzero"/></clipPath><clipPath id="bcd105415d"><path d="M 33.898438 18.390625 L 37.007812 18.390625 L 37.007812 37.007812 L 33.898438 37.007812 Z M 33.898438 18.390625 " clip-rule="nonzero"/></clipPath><clipPath id="81393d0228"><path d="M 34.261719 36.339844 C 39.917969 30.566406 37.957031 28.71875 38.1875 27.21875 C 38.417969 25.601562 40.148438 23.988281 41.074219 22.71875 C 41.882812 21.445312 42.691406 20.0625 43.730469 19.371094 C 44.652344 18.792969 45.808594 18.445312 46.84375 18.445312 C 47.769531 18.5625 49.039062 18.90625 49.847656 19.601562 C 50.65625 20.292969 51.347656 21.214844 51.578125 22.371094 C 51.808594 23.640625 51.347656 25.835938 50.425781 26.875 C 49.5 27.914062 47.191406 28.605469 45.921875 28.488281 C 44.882812 28.488281 43.730469 27.796875 43.035156 27.105469 C 42.34375 26.410156 41.765625 25.140625 41.652344 24.21875 C 41.535156 23.179688 41.765625 21.910156 42.226562 20.984375 C 42.804688 20.175781 43.730469 19.253906 44.652344 18.90625 C 45.574219 18.445312 46.84375 18.332031 47.882812 18.675781 C 49.15625 19.023438 50.886719 20.523438 51.347656 21.792969 C 51.808594 23.0625 51.464844 25.371094 50.769531 26.527344 C 50.195312 27.335938 48.808594 27.21875 48.117188 28.257812 C 46.960938 29.992188 47.769531 34.953125 46.382812 37.378906 C 45.230469 39.574219 42.804688 41.535156 41.1875 42.574219 C 40.148438 43.265625 39.226562 43.730469 38.070312 43.730469 C 36.917969 43.613281 34.953125 42.804688 34.261719 41.652344 C 33.570312 40.378906 34.261719 36.339844 34.261719 36.339844 " clip-rule="nonzero"/></clipPath><clipPath id="64736aa855"><path d="M 34.800781 0 L 37.007812 0 L 37.007812 27.382812 L 34.800781 27.382812 Z M 34.800781 0 " clip-rule="nonzero"/></clipPath><clipPath id="e20a6d3033"><path d="M 41.652344 22.71875 C 41.765625 14.636719 41.304688 13.367188 40.378906 11.863281 C 39.339844 9.902344 36.109375 7.824219 35.300781 6.09375 C 34.839844 4.9375 34.839844 3.785156 35.070312 2.859375 C 35.300781 1.820312 35.878906 0.667969 36.6875 -0.0273438 C 37.496094 -0.601562 38.765625 -1.066406 39.804688 -1.179688 C 40.84375 -1.179688 41.996094 -0.835938 42.921875 -0.257812 C 43.730469 0.320312 44.535156 1.359375 44.882812 2.398438 C 45.113281 3.320312 45.113281 4.59375 44.769531 5.632812 C 44.421875 6.554688 43.730469 7.707031 42.804688 8.171875 C 41.652344 8.863281 39.339844 9.09375 38.070312 8.632812 C 37.03125 8.285156 36.109375 7.476562 35.648438 6.554688 C 35.070312 5.632812 34.722656 4.476562 34.953125 3.320312 C 35.183594 2.050781 36.339844 0.0898438 37.609375 -0.601562 C 38.878906 -1.179688 41.074219 -1.066406 42.457031 -0.488281 C 43.730469 -0.0273438 44.535156 1.359375 45.574219 2.746094 C 47.191406 4.9375 49.847656 8.863281 50.769531 11.402344 C 51.464844 13.367188 51.578125 14.867188 51.695312 16.828125 C 51.695312 19.136719 51.464844 22.601562 50.769531 24.332031 C 50.195312 25.601562 49.730469 26.527344 48.691406 26.988281 C 47.421875 27.566406 44.535156 27.449219 43.382812 26.640625 C 42.34375 25.949219 41.652344 22.71875 41.652344 22.71875 " clip-rule="nonzero"/></clipPath><clipPath id="43e63b2170"><path d="M 11.65625 0 L 37.007812 0 L 37.007812 3.863281 L 11.65625 3.863281 Z M 11.65625 0 " clip-rule="nonzero"/></clipPath><clipPath id="62e0a03fcc"><path d="M 33.453125 1.359375 C 24.21875 -3.835938 17.753906 -2.679688 15.214844 -3.605469 C 13.941406 -4.066406 13.136719 -4.644531 12.671875 -5.566406 C 11.980469 -6.722656 11.632812 -9.03125 12.097656 -10.300781 C 12.671875 -11.6875 14.40625 -13.1875 15.789062 -13.417969 C 17.175781 -13.765625 19.371094 -13.1875 20.40625 -12.148438 C 21.445312 -11.222656 22.140625 -9.03125 21.910156 -7.644531 C 21.679688 -6.144531 20.292969 -4.414062 19.023438 -3.71875 C 17.753906 -3.144531 15.445312 -3.257812 14.289062 -4.066406 C 13.019531 -4.757812 11.980469 -6.835938 11.75 -8.105469 C 11.632812 -9.261719 12.097656 -10.417969 12.671875 -11.339844 C 13.25 -12.148438 13.941406 -12.957031 15.214844 -13.300781 C 18.445312 -14.226562 29.066406 -12.378906 33.105469 -11.222656 C 35.183594 -10.648438 36.339844 -10.300781 37.726562 -9.03125 C 39.574219 -7.300781 42.34375 -3.144531 42.226562 -0.949219 C 42.226562 0.78125 40.496094 2.859375 39.339844 3.4375 C 38.300781 4.015625 36.917969 3.898438 35.992188 3.554688 C 35.070312 3.207031 33.453125 1.359375 33.453125 1.359375 " clip-rule="nonzero"/></clipPath><clipPath id="6e6da0f7ed"><path d="M 7.382812 0 L 16.386719 0 L 16.386719 0.300781 L 7.382812 0.300781 Z M 7.382812 0 " clip-rule="nonzero"/></clipPath><clipPath id="dc4da5c53f"><path d="M 16.367188 -5.683594 C 16.136719 -2.449219 14.75 -0.71875 13.828125 -0.140625 C 13.136719 0.203125 12.441406 0.4375 11.632812 0.203125 C 10.480469 0.0898438 8.632812 -0.949219 7.941406 -1.988281 C 7.246094 -3.027344 7.363281 -5.222656 7.707031 -6.261719 C 7.941406 -7.070312 8.402344 -7.53125 9.09375 -7.992188 C 10.019531 -8.570312 12.210938 -9.03125 13.25 -8.800781 C 14.058594 -8.683594 15.214844 -7.644531 15.214844 -7.644531 " clip-rule="nonzero"/></clipPath><clipPath id="a9a9b41a0c"><path d="M 31.855469 0 L 37.007812 0 L 37.007812 2.566406 L 31.855469 2.566406 Z M 31.855469 0 " clip-rule="nonzero"/></clipPath><clipPath id="c996f6454a"><path d="M 40.726562 -3.375 C 40.496094 -0.0273438 39.339844 1.707031 38.1875 2.28125 C 37.03125 2.746094 34.953125 2.398438 33.914062 1.9375 C 33.222656 1.707031 32.644531 1.128906 32.300781 0.4375 C 31.835938 -0.601562 31.722656 -2.796875 32.070312 -3.835938 C 32.300781 -4.644531 32.761719 -5.222656 33.453125 -5.566406 C 34.378906 -6.144531 36.570312 -6.605469 37.726562 -6.375 C 38.417969 -6.261719 39.574219 -5.222656 39.574219 -5.222656 " clip-rule="nonzero"/></clipPath><clipPath id="5f7a85db89"><path d="M 0 33.175781 L 4.597656 33.175781 L 4.597656 37.007812 L 0 37.007812 Z M 0 33.175781 " clip-rule="nonzero"/></clipPath><clipPath id="2cc58d260a"><path d="M 4.589844 36.859375 C 2.738281 39.746094 2.074219 39.894531 1.40625 39.820312 C 0.667969 39.746094 -0.59375 39.078125 -0.960938 38.414062 C -1.40625 37.671875 -1.480469 36.339844 -1.109375 35.601562 C -0.8125 34.859375 0.296875 34.046875 1.109375 33.898438 C 1.925781 33.75 3.183594 34.195312 3.699219 34.785156 C 4.292969 35.378906 4.664062 36.710938 4.515625 37.523438 C 4.292969 38.339844 3.40625 39.300781 2.664062 39.597656 C 1.925781 39.96875 0.59375 39.820312 -0.0742188 39.300781 C -0.886719 38.78125 -1.480469 37.082031 -1.480469 36.117188 C -1.480469 35.378906 -1.109375 34.636719 -0.59375 34.121094 C -0.148438 33.675781 0.667969 33.304688 1.332031 33.230469 C 2 33.15625 2.886719 33.453125 3.40625 33.824219 C 3.921875 34.269531 4.589844 35.675781 4.589844 35.675781 " clip-rule="nonzero"/></clipPath><clipPath id="8aef805ee2"><path d="M 33.464844 33.035156 L 37.007812 33.035156 L 37.007812 37.007812 L 33.464844 37.007812 Z M 33.464844 33.035156 " clip-rule="nonzero"/></clipPath><clipPath id="1b509c905c"><path d="M 39.078125 35.007812 C 38.339844 38.191406 37.96875 38.488281 37.449219 38.636719 C 36.785156 38.855469 35.378906 38.707031 34.710938 38.414062 C 34.269531 38.265625 33.972656 37.894531 33.75 37.449219 C 33.453125 36.785156 33.378906 35.378906 33.601562 34.710938 C 33.75 34.195312 33.972656 33.824219 34.417969 33.601562 C 35.082031 33.230469 36.414062 32.9375 37.15625 33.082031 C 37.671875 33.15625 38.339844 33.824219 38.339844 33.824219 " clip-rule="nonzero"/></clipPath><clipPath id="31fbf6627e"><path d="M 30.800781 33.257812 L 36.492188 33.257812 L 36.492188 37.007812 L 30.800781 37.007812 Z M 30.800781 33.257812 " clip-rule="nonzero"/></clipPath><clipPath id="eb3e139bd7"><path d="M 36.488281 35.304688 C 35.75 38.414062 35.378906 38.707031 34.859375 38.855469 C 34.195312 39.078125 32.789062 39.003906 32.121094 38.707031 C 31.675781 38.488281 31.308594 38.117188 31.160156 37.671875 C 30.863281 37.007812 30.714844 35.601562 30.9375 34.933594 C 31.085938 34.417969 31.382812 34.121094 31.824219 33.824219 C 32.417969 33.453125 33.824219 33.15625 34.5625 33.304688 C 35.082031 33.378906 35.75 34.046875 35.75 34.046875 " clip-rule="nonzero"/></clipPath><clipPath id="b41f7fd9b6"><path d="M 33.6875 29.335938 L 37.007812 29.335938 L 37.007812 35.070312 L 33.6875 35.070312 Z M 33.6875 29.335938 " clip-rule="nonzero"/></clipPath><clipPath id="a4af5aa166"><path d="M 39.300781 31.382812 C 38.5625 34.488281 38.191406 34.785156 37.746094 34.933594 C 37.007812 35.15625 35.601562 35.082031 35.007812 34.785156 C 34.488281 34.5625 34.195312 34.269531 33.972656 33.75 C 33.675781 33.082031 33.601562 31.675781 33.824219 31.011719 C 33.972656 30.566406 34.269531 30.199219 34.710938 29.902344 C 35.304688 29.53125 36.710938 29.308594 37.375 29.382812 C 37.894531 29.53125 38.5625 30.125 38.5625 30.125 " clip-rule="nonzero"/></clipPath><clipPath id="ff097910f1"><path d="M 3.472656 35.785156 L 5.648438 35.785156 L 5.648438 37.007812 L 3.472656 37.007812 Z M 3.472656 35.785156 " clip-rule="nonzero"/></clipPath><clipPath id="fb4e6bd1ed"><path d="M 5.625 36.414062 C 4.664062 37.894531 3.773438 37.597656 3.550781 37.300781 C 3.40625 37.007812 3.550781 36.117188 3.847656 35.894531 C 4.144531 35.675781 5.328125 35.96875 5.328125 35.96875 " clip-rule="nonzero"/></clipPath></defs><path fill="#000000" d="M 17.601562 36.410156 C 15.597656 36.410156 14.039062 35.855469 11.480469 35.078125 C 11.035156 34.964844 10.476562 34.855469 10.03125 34.632812 C 9.808594 34.632812 9.585938 34.410156 9.476562 34.1875 C 9.363281 33.964844 9.363281 33.628906 9.585938 33.40625 C 9.699219 33.183594 9.808594 32.851562 9.699219 32.515625 L 6.46875 20.496094 C 6.359375 20.160156 6.246094 19.9375 6.023438 19.828125 C 5.914062 19.714844 5.691406 19.382812 5.691406 19.160156 C 5.691406 18.9375 5.914062 18.714844 6.023438 18.492188 C 7.582031 17.265625 9.253906 16.597656 10.476562 16.152344 C 11.8125 15.707031 11.8125 14.816406 11.480469 12.480469 C 11.257812 10.699219 11.035156 8.363281 12.480469 6.46875 C 13.261719 5.46875 14.59375 5.023438 15.820312 5.246094 C 16.933594 5.46875 17.824219 6.246094 18.046875 7.359375 C 18.714844 9.808594 19.382812 12.257812 20.050781 14.59375 L 32.628906 11.257812 C 33.40625 11.035156 34.296875 11.144531 35.078125 11.589844 C 35.855469 12.035156 36.410156 12.703125 36.632812 13.59375 C 36.855469 14.371094 36.746094 15.261719 36.300781 16.042969 C 35.855469 16.820312 35.1875 17.378906 34.296875 17.601562 L 30.402344 18.601562 C 30.734375 19.046875 30.957031 19.492188 31.179688 20.050781 C 31.515625 21.496094 30.847656 22.945312 29.621094 23.722656 C 30.066406 24.058594 30.402344 24.613281 30.511719 25.167969 C 30.734375 26.058594 30.625 26.949219 30.179688 27.617188 C 29.734375 28.398438 29.066406 28.953125 28.175781 29.175781 L 28.0625 29.175781 C 28.398438 29.621094 28.730469 30.066406 28.84375 30.625 C 29.289062 32.40625 28.285156 34.1875 26.503906 34.632812 L 24.613281 35.1875 C 21.386719 35.96875 19.382812 36.410156 17.601562 36.410156 Z M 11.367188 33.296875 C 11.589844 33.40625 11.8125 33.40625 11.925781 33.519531 C 16.488281 34.855469 17.710938 35.300781 24.28125 33.519531 L 26.058594 32.960938 C 26.949219 32.738281 27.394531 31.960938 27.171875 31.070312 C 27.0625 30.625 26.839844 30.289062 26.503906 30.179688 C 26.058594 29.957031 25.726562 29.84375 25.28125 29.957031 C 24.835938 30.066406 24.390625 29.84375 24.28125 29.398438 C 24.167969 28.953125 24.390625 28.507812 24.835938 28.398438 L 27.730469 27.617188 C 28.175781 27.507812 28.507812 27.171875 28.730469 26.839844 C 28.953125 26.503906 28.953125 26.058594 28.84375 25.613281 C 28.621094 24.835938 27.839844 24.28125 26.949219 24.503906 L 24.058594 25.28125 C 23.613281 25.390625 23.167969 25.167969 23.054688 24.726562 C 22.945312 24.28125 23.167969 23.835938 23.613281 23.722656 L 28.398438 22.386719 C 29.289062 22.164062 29.734375 21.273438 29.511719 20.496094 C 29.398438 20.050781 29.175781 19.714844 28.84375 19.492188 C 28.398438 19.269531 27.953125 19.269531 27.617188 19.382812 L 22.832031 20.605469 C 22.386719 20.71875 21.832031 20.496094 21.71875 20.050781 C 21.609375 19.605469 21.941406 19.160156 22.386719 19.046875 L 33.851562 15.929688 C 34.296875 15.820312 34.632812 15.597656 34.855469 15.152344 C 35.078125 14.816406 35.078125 14.371094 34.964844 14.039062 C 34.855469 13.59375 34.632812 13.261719 34.296875 13.039062 C 33.851562 12.816406 33.519531 12.816406 33.074219 12.925781 L 19.714844 16.488281 C 19.492188 16.597656 19.269531 16.488281 19.046875 16.375 C 18.824219 16.265625 18.714844 16.152344 18.601562 15.929688 L 18.378906 15.039062 C 17.824219 12.703125 17.15625 10.253906 16.488281 7.804688 C 16.265625 7.25 15.820312 7.027344 15.484375 6.914062 C 14.929688 6.804688 14.261719 7.027344 13.816406 7.472656 C 12.703125 8.917969 12.925781 10.589844 13.148438 12.371094 C 13.484375 14.371094 13.707031 16.710938 11.035156 17.710938 C 10.144531 18.046875 8.917969 18.601562 7.804688 19.269531 C 7.917969 19.492188 8.027344 19.714844 8.140625 20.050781 L 11.367188 32.070312 C 11.480469 32.515625 11.480469 32.960938 11.367188 33.296875 Z M 11.367188 33.296875 " fill-opacity="1" fill-rule="evenodd"/><path fill="#000000" d="M 6.582031 36.191406 C 5.246094 36.191406 4.132812 35.300781 3.796875 34.074219 L 0.570312 22.054688 C 0.125 20.496094 1.128906 18.9375 2.574219 18.492188 L 4.578125 18.046875 C 4.910156 17.933594 5.132812 17.933594 5.355469 17.933594 C 6.582031 17.933594 7.804688 18.824219 8.140625 20.050781 L 11.367188 32.070312 C 11.480469 32.738281 11.367188 33.519531 11.035156 34.1875 C 10.699219 34.855469 10.03125 35.300781 9.363281 35.523438 L 7.25 36.078125 C 7.027344 36.191406 6.804688 36.191406 6.582031 36.191406 Z M 5.355469 19.605469 C 5.246094 19.605469 5.132812 19.605469 5.023438 19.605469 L 3.019531 20.160156 C 2.464844 20.382812 2.019531 20.941406 2.242188 21.609375 L 5.46875 33.628906 C 5.578125 34.1875 6.023438 34.519531 6.582031 34.519531 C 6.691406 34.519531 6.804688 34.519531 6.804688 34.410156 L 8.917969 33.851562 C 9.140625 33.851562 9.476562 33.628906 9.585938 33.40625 C 9.699219 33.074219 9.808594 32.738281 9.699219 32.515625 L 6.46875 20.496094 C 6.359375 19.9375 5.914062 19.605469 5.355469 19.605469 Z M 5.355469 19.605469 " fill-opacity="1" fill-rule="evenodd"/><path fill="#000000" d="M 24.949219 8.808594 C 24.503906 8.808594 24.167969 8.472656 24.167969 8.027344 L 24.167969 1.683594 C 24.167969 1.238281 24.503906 0.792969 24.949219 0.792969 C 25.390625 0.792969 25.835938 1.238281 25.835938 1.683594 L 25.835938 8.027344 C 25.835938 8.472656 25.390625 8.808594 24.949219 8.808594 Z M 24.949219 8.808594 " fill-opacity="1" fill-rule="evenodd"/><path fill="#000000" d="M 28.175781 8.808594 C 28.0625 8.808594 27.953125 8.808594 27.839844 8.808594 C 27.394531 8.585938 27.285156 8.140625 27.394531 7.695312 L 29.957031 1.683594 C 30.179688 1.238281 30.625 1.015625 31.070312 1.238281 C 31.515625 1.351562 31.625 1.90625 31.515625 2.242188 L 28.953125 8.363281 C 28.84375 8.695312 28.507812 8.808594 28.175781 8.808594 Z M 28.175781 8.808594 " fill-opacity="1" fill-rule="evenodd"/><path fill="#000000" d="M 21.71875 8.808594 C 21.386719 8.808594 21.164062 8.695312 20.941406 8.363281 L 18.492188 2.242188 C 18.269531 1.90625 18.492188 1.351562 18.9375 1.238281 C 19.382812 1.015625 19.828125 1.238281 20.050781 1.683594 L 22.5 7.695312 C 22.722656 8.140625 22.5 8.585938 22.054688 8.808594 C 21.941406 8.808594 21.832031 8.808594 21.71875 8.808594 Z M 21.71875 8.808594 " fill-opacity="1" fill-rule="evenodd"/><g clip-path="url(#cd01e9e488)"><path fill="#000000" d="M 18.601562 47.097656 C 11.035156 47.097656 3.796875 44.09375 -1.542969 38.75 C -6.886719 33.40625 -9.890625 26.171875 -9.890625 18.601562 C -9.890625 11.035156 -6.886719 3.796875 -1.542969 -1.542969 C 3.796875 -6.886719 11.035156 -9.890625 18.601562 -9.890625 C 26.171875 -9.890625 33.40625 -6.886719 38.75 -1.542969 C 44.09375 3.796875 47.097656 11.035156 47.097656 18.601562 C 47.097656 26.171875 44.09375 33.40625 38.75 38.75 C 33.40625 44.09375 26.171875 47.097656 18.601562 47.097656 Z M 18.601562 -8.222656 C 3.796875 -8.222656 -8.222656 3.796875 -8.222656 18.601562 C -8.222656 33.40625 3.796875 45.429688 18.601562 45.429688 C 33.40625 45.429688 45.429688 33.40625 45.429688 18.601562 C 45.429688 3.796875 33.40625 -8.222656 18.601562 -8.222656 Z M 18.601562 -8.222656 " fill-opacity="1" fill-rule="evenodd"/><path fill="#000000" d="M 18.601562 43.425781 C 4.910156 43.425781 -6.21875 32.292969 -6.21875 18.601562 C -6.21875 4.910156 4.910156 -6.21875 18.601562 -6.21875 C 32.292969 -6.21875 43.425781 4.910156 43.425781 18.601562 C 43.425781 32.292969 32.292969 43.425781 18.601562 43.425781 Z M 18.601562 -4.550781 C 5.800781 -4.550781 -4.550781 5.800781 -4.550781 18.601562 C -4.550781 31.402344 5.800781 41.753906 18.601562 41.753906 C 31.402344 41.753906 41.753906 31.402344 41.753906 18.601562 C 41.753906 5.800781 31.402344 -4.550781 18.601562 -4.550781 Z M 18.601562 -4.550781 " fill-opacity="1" fill-rule="evenodd"/></g><g clip-path="url(#9be5ca7436)"><g clip-path="url(#af3d320675)"><path fill="#ffffff" d="M -6.605469 -19.191406 L 35.652344 -19.191406 L 35.652344 7.132812 L -6.605469 7.132812 Z M -6.605469 -19.191406 " fill-opacity="1" fill-rule="nonzero"/></g></g><g clip-path="url(#98627c55a4)"><g clip-path="url(#3b378329c0)"><path fill="#ffffff" d="M -9.953125 -10.53125 L 16.019531 -10.53125 L 16.019531 16.253906 L -9.953125 16.253906 Z M -9.953125 -10.53125 " fill-opacity="1" fill-rule="nonzero"/></g></g><g clip-path="url(#aaf004fb9e)"><g clip-path="url(#030e8dac8e)"><path fill="#ffffff" d="M -19.421875 -10.183594 L 11.632812 -10.183594 L 11.632812 37.851562 L -19.421875 37.851562 Z M -19.421875 -10.183594 " fill-opacity="1" fill-rule="nonzero"/></g></g><g clip-path="url(#74b517aa38)"><g clip-path="url(#cdbf6ee75f)"><path fill="#ffffff" d="M -14.6875 23.179688 L 6.554688 23.179688 L 6.554688 50.644531 L -14.6875 50.644531 Z M -14.6875 23.179688 " fill-opacity="1" fill-rule="nonzero"/></g></g><g clip-path="url(#a65ab6ce03)"><g clip-path="url(#9f89d2fae3)"><path fill="#ffffff" d="M -11.339844 29.992188 L 7.246094 29.992188 L 7.246094 48.722656 L -11.339844 48.722656 Z M -11.339844 29.992188 " fill-opacity="1" fill-rule="nonzero"/></g></g><g clip-path="url(#6326aa0378)"><g clip-path="url(#040af1c782)"><path fill="#ffffff" d="M -12.148438 26.988281 L 6.65625 26.988281 L 6.65625 45.574219 L -12.148438 45.574219 Z M -12.148438 26.988281 " fill-opacity="1" fill-rule="nonzero"/></g></g><g clip-path="url(#9f58b78cd8)"><g clip-path="url(#cbae7d4cad)"><path fill="#ffffff" d="M -10.878906 32.300781 L 8.542969 32.300781 L 8.542969 51.347656 L -10.878906 51.347656 Z M -10.878906 32.300781 " fill-opacity="1" fill-rule="nonzero"/></g></g><g clip-path="url(#a6a171498f)"><g clip-path="url(#cb4a5590e7)"><path fill="#ffffff" d="M -7.992188 31.375 L 10.019531 31.375 L 10.019531 49.386719 L -7.992188 49.386719 Z M -7.992188 31.375 " fill-opacity="1" fill-rule="nonzero"/></g></g><g clip-path="url(#1f09c271a4)"><g clip-path="url(#026b0ffbe9)"><path fill="#ffffff" d="M 10.019531 19.023438 L 56.484375 19.023438 L 56.484375 56.195312 L 10.019531 56.195312 Z M 10.019531 19.023438 " fill-opacity="1" fill-rule="nonzero"/></g></g><g clip-path="url(#bcd105415d)"><g clip-path="url(#81393d0228)"><path fill="#ffffff" d="M 29.644531 13.828125 L 56.195312 13.828125 L 56.195312 48.367188 L 29.644531 48.367188 Z M 29.644531 13.828125 " fill-opacity="1" fill-rule="nonzero"/></g></g><g clip-path="url(#64736aa855)"><g clip-path="url(#e20a6d3033)"><path fill="#ffffff" d="M 30.335938 -5.796875 L 56.3125 -5.796875 L 56.3125 31.644531 L 30.335938 31.644531 Z M 30.335938 -5.796875 " fill-opacity="1" fill-rule="nonzero"/></g></g><g clip-path="url(#43e63b2170)"><g clip-path="url(#62e0a03fcc)"><path fill="#ffffff" d="M 7.132812 -18.035156 L 46.921875 -18.035156 L 46.921875 8.285156 L 7.132812 8.285156 Z M 7.132812 -18.035156 " fill-opacity="1" fill-rule="nonzero"/></g></g><g clip-path="url(#6e6da0f7ed)"><g clip-path="url(#dc4da5c53f)"><path fill="#ffffff" d="M 3.089844 -13.417969 L 21.101562 -13.417969 L 21.101562 4.945312 L 3.089844 4.945312 Z M 3.089844 -13.417969 " fill-opacity="1" fill-rule="nonzero"/></g></g><g clip-path="url(#a9a9b41a0c)"><g clip-path="url(#c996f6454a)"><path fill="#ffffff" d="M 27.449219 -10.992188 L 45.484375 -10.992188 L 45.484375 6.902344 L 27.449219 6.902344 Z M 27.449219 -10.992188 " fill-opacity="1" fill-rule="nonzero"/></g></g><g clip-path="url(#5f7a85db89)"><g clip-path="url(#2cc58d260a)"><path fill="#ffffff" d="M -4.441406 30.269531 L 7.550781 30.269531 L 7.550781 42.871094 L -4.441406 42.871094 Z M -4.441406 30.269531 " fill-opacity="1" fill-rule="nonzero"/></g></g><g clip-path="url(#8aef805ee2)"><g clip-path="url(#1b509c905c)"><path fill="#ffffff" d="M 30.640625 30.125 L 42.113281 30.125 L 42.113281 41.59375 L 30.640625 41.59375 Z M 30.640625 30.125 " fill-opacity="1" fill-rule="nonzero"/></g></g><g clip-path="url(#31fbf6627e)"><g clip-path="url(#eb3e139bd7)"><path fill="#ffffff" d="M 27.976562 30.34375 L 39.449219 30.34375 L 39.449219 41.816406 L 27.976562 41.816406 Z M 27.976562 30.34375 " fill-opacity="1" fill-rule="nonzero"/></g></g><g clip-path="url(#b41f7fd9b6)"><g clip-path="url(#a4af5aa166)"><path fill="#ffffff" d="M 30.863281 26.421875 L 42.335938 26.421875 L 42.335938 37.894531 L 30.863281 37.894531 Z M 30.863281 26.421875 " fill-opacity="1" fill-rule="nonzero"/></g></g><g clip-path="url(#ff097910f1)"><g clip-path="url(#fb4e6bd1ed)"><path fill="#ffffff" d="M 0.59375 32.9375 L 8.589844 32.9375 L 8.589844 40.78125 L 0.59375 40.78125 Z M 0.59375 32.9375 " fill-opacity="1" fill-rule="nonzero"/></g></g></svg>