<svg xmlns="http://www.w3.org/2000/svg" xmlns:xlink="http://www.w3.org/1999/xlink" width="50" zoomAndPan="magnify" viewBox="0 0 37.5 37.499999" height="50" preserveAspectRatio="xMidYMid meet" version="1.0"><defs><clipPath id="39376a09e5"><path d="M 3.421875 0 L 33.769531 0 L 33.769531 37.007812 L 3.421875 37.007812 Z M 3.421875 0 " clip-rule="nonzero"/></clipPath></defs><g clip-path="url(#39376a09e5)"><path fill="#000000" d="M 33.003906 20.25 C 33.003906 19.648438 32.75 19.101562 32.347656 18.664062 C 33.195312 18.210938 33.765625 17.410156 33.765625 16.488281 C 33.765625 15.4375 33.03125 14.539062 31.984375 14.140625 C 32.140625 13.78125 32.238281 13.320312 32.238281 12.726562 C 32.238281 11.765625 31.621094 10.9375 30.714844 10.5 L 30.714844 2.191406 C 30.714844 0.984375 29.722656 0 28.5 0 L 16.296875 0 C 15.074219 0 14.082031 0.984375 14.082031 2.191406 L 14.082031 10.398438 C 13.097656 11.359375 12.226562 12.671875 11.566406 13.828125 C 9.664062 17.160156 9.265625 20.984375 9.21875 21.570312 C 9.164062 21.757812 8.9375 22.460938 8.410156 23.628906 L 7.839844 23.066406 C 7.570312 22.796875 7.136719 22.796875 6.867188 23.066406 L 3.632812 26.257812 C 3.5 26.386719 3.425781 26.558594 3.425781 26.742188 C 3.425781 26.925781 3.5 27.101562 3.628906 27.230469 L 13.335938 36.808594 C 13.472656 36.941406 13.648438 37.007812 13.824219 37.007812 C 14 37.007812 14.175781 36.941406 14.308594 36.808594 L 17.546875 33.613281 C 17.675781 33.484375 17.75 33.3125 17.75 33.128906 C 17.75 32.945312 17.675781 32.769531 17.546875 32.640625 L 17.171875 32.273438 C 17.496094 31.917969 18.195312 31.34375 19.628906 30.871094 C 20.242188 30.667969 20.898438 30.511719 21.53125 30.355469 C 23.574219 29.859375 25.679688 29.34375 27.089844 27.332031 L 28.5 27.332031 C 29.574219 27.332031 30.472656 26.570312 30.671875 25.5625 C 31.609375 25.199219 32.238281 24.484375 32.238281 23.636719 C 32.238281 23.019531 32.09375 22.578125 31.867188 22.25 C 32.554688 21.78125 33.003906 21.0625 33.003906 20.25 Z M 30.023438 21.445312 L 27.738281 21.445312 C 26.871094 21.445312 26.136719 20.898438 26.136719 20.25 C 26.136719 19.601562 26.871094 19.054688 27.738281 19.054688 L 30.023438 19.054688 C 30.890625 19.054688 31.621094 19.601562 31.621094 20.25 C 31.621094 20.898438 30.890625 21.445312 30.023438 21.445312 Z M 32.386719 16.488281 C 32.386719 17.136719 31.652344 17.683594 30.789062 17.683594 L 27.738281 17.683594 C 26.871094 17.683594 26.140625 17.136719 26.140625 16.488281 C 26.140625 15.839844 26.871094 15.292969 27.738281 15.292969 L 30.789062 15.292969 C 31.652344 15.292969 32.386719 15.839844 32.386719 16.488281 Z M 30.023438 13.921875 L 28.5 13.921875 C 27.632812 13.921875 26.902344 13.375 26.902344 12.726562 C 26.902344 12.078125 27.632812 11.53125 28.5 11.53125 L 29.261719 11.53125 C 30.128906 11.53125 30.859375 12.078125 30.859375 12.726562 C 30.859375 13.835938 30.53125 13.921875 30.023438 13.921875 Z M 16.296875 1.371094 L 28.5 1.371094 C 28.960938 1.371094 29.335938 1.738281 29.335938 2.191406 L 29.335938 2.257812 L 15.460938 2.257812 L 15.460938 2.191406 C 15.460938 1.738281 15.835938 1.371094 16.296875 1.371094 Z M 15.460938 3.628906 L 29.335938 3.628906 L 29.335938 10.164062 C 29.308594 10.164062 29.289062 10.160156 29.261719 10.160156 L 28.5 10.160156 C 26.859375 10.160156 25.523438 11.308594 25.523438 12.726562 C 25.523438 13.328125 25.773438 13.875 26.175781 14.3125 C 25.332031 14.765625 24.761719 15.566406 24.761719 16.488281 C 24.761719 17.234375 25.136719 17.898438 25.726562 18.371094 C 25.136719 18.839844 24.761719 19.503906 24.761719 20.25 C 24.761719 20.683594 24.898438 21.085938 25.121094 21.445312 L 15.460938 21.445312 L 15.460938 17.992188 C 15.460938 17.921875 15.441406 17.859375 15.417969 17.792969 C 15.914062 16.90625 16.605469 15.820312 17.523438 14.734375 C 18.574219 13.488281 19.144531 12.117188 19.046875 11.066406 C 18.988281 10.453125 18.714844 9.9375 18.257812 9.5625 C 17.695312 9.105469 17.03125 8.929688 16.324219 9.058594 C 16.03125 9.113281 15.742188 9.222656 15.460938 9.367188 Z M 13.824219 35.355469 L 5.09375 26.742188 L 7.351562 24.515625 L 8.035156 25.191406 C 8.089844 25.277344 8.160156 25.347656 8.25 25.402344 L 16.078125 33.128906 Z M 21.203125 29.027344 C 20.542969 29.183594 19.863281 29.351562 19.195312 29.570312 C 17.582031 30.101562 16.683594 30.78125 16.191406 31.308594 L 9.449219 24.65625 C 10.296875 22.863281 10.554688 21.90625 10.566406 21.863281 C 10.574219 21.824219 10.582031 21.78125 10.585938 21.742188 C 10.585938 21.703125 10.898438 17.773438 12.765625 14.507812 C 14.121094 12.128906 15.546875 10.59375 16.574219 10.40625 C 16.875 10.351562 17.132812 10.417969 17.382812 10.621094 C 17.554688 10.761719 17.648438 10.945312 17.671875 11.191406 C 17.734375 11.867188 17.261719 12.910156 16.464844 13.851562 C 14.1875 16.550781 13.207031 19.214844 13.167969 19.328125 C 13.039062 19.683594 13.222656 20.078125 13.582031 20.207031 C 13.753906 20.265625 13.925781 20.25 14.082031 20.1875 L 14.082031 25.140625 C 14.082031 26.347656 15.074219 27.332031 16.292969 27.332031 L 25.257812 27.332031 C 24.1875 28.292969 22.78125 28.640625 21.203125 29.027344 Z M 16.296875 25.960938 C 15.835938 25.960938 15.460938 25.59375 15.460938 25.140625 L 15.460938 22.816406 L 25.738281 22.816406 C 25.601562 23.070312 25.523438 23.34375 25.523438 23.636719 C 25.523438 24.863281 26.828125 25.828125 28.5 25.828125 L 28.929688 25.828125 C 28.804688 25.90625 28.660156 25.960938 28.5 25.960938 Z M 30.859375 23.636719 C 30.859375 23.972656 30.238281 24.457031 29.261719 24.457031 L 28.5 24.457031 C 27.523438 24.457031 26.902344 23.972656 26.902344 23.636719 C 26.902344 23.300781 27.523438 22.816406 28.5 22.816406 L 30.023438 22.816406 C 30.746094 22.816406 30.859375 23.011719 30.859375 23.636719 Z M 30.859375 23.636719 " fill-opacity="1" fill-rule="nonzero"/></g><path fill="#000000" d="M 23.160156 23.703125 L 21.636719 23.703125 C 21.253906 23.703125 20.945312 24.011719 20.945312 24.390625 C 20.945312 24.769531 21.253906 25.074219 21.636719 25.074219 L 23.160156 25.074219 C 23.542969 25.074219 23.851562 24.769531 23.851562 24.390625 C 23.851562 24.011719 23.542969 23.703125 23.160156 23.703125 Z M 23.160156 23.703125 " fill-opacity="1" fill-rule="nonzero"/></svg>