<svg xmlns="http://www.w3.org/2000/svg" xmlns:xlink="http://www.w3.org/1999/xlink" width="50" zoomAndPan="magnify" viewBox="0 0 37.5 37.499999" height="50" preserveAspectRatio="xMidYMid meet" version="1.0"><defs><clipPath id="e5aeb61960"><path d="M 0 2.105469 L 37 2.105469 L 37 34.671875 L 0 34.671875 Z M 0 2.105469 " clip-rule="nonzero"/></clipPath></defs><g clip-path="url(#e5aeb61960)"><path fill="#000000" d="M 8.242188 21.429688 C 9.089844 21.40625 9.921875 21.628906 10.945312 21.972656 C 12.992188 22.660156 15.648438 23.929688 19.746094 24.59375 C 23.101562 25.136719 22.792969 26.882812 22.703125 27.039062 C 22.566406 27.289062 22.515625 27.335938 22.210938 27.425781 C 21.902344 27.515625 21.320312 27.554688 20.441406 27.519531 L 14.628906 27.265625 C 13.453125 27.214844 13.375 28.972656 14.554688 29.023438 L 20.367188 29.269531 C 21.316406 29.308594 22.058594 29.34375 22.699219 29.105469 C 23.582031 28.78125 24.101562 28.242188 24.246094 27.40625 L 32.425781 24.6875 C 33.816406 24.222656 34.632812 24.785156 34.964844 25.402344 C 35.132812 25.710938 35.160156 26.023438 35.066406 26.292969 C 34.972656 26.558594 34.765625 26.828125 34.21875 27.046875 L 21.109375 32.230469 C 19.546875 32.667969 17.054688 32.164062 14.660156 31.488281 C 13.460938 31.148438 12.28125 30.78125 11.207031 30.519531 C 10.132812 30.257812 9.183594 30.070312 8.285156 30.222656 L 5.75 30.640625 C 5.410156 30.699219 4.847656 30.519531 4.226562 30 C 3.609375 29.484375 2.984375 28.6875 2.53125 27.839844 C 2.082031 26.992188 1.804688 26.085938 1.789062 25.410156 C 1.773438 24.738281 1.921875 24.402344 2.117188 24.289062 C 2.117188 24.285156 5.445312 22.34375 5.445312 22.34375 C 6.53125 21.714844 7.394531 21.449219 8.242188 21.429688 Z M 22.128906 4.054688 C 23.257812 4.078125 24.394531 4.277344 25.5 4.664062 C 29.933594 6.207031 32.871094 10.375 32.8125 15.039062 C 32.753906 19.699219 29.710938 23.796875 25.242188 25.226562 C 25.210938 25.234375 25.179688 25.246094 25.152344 25.257812 L 24.042969 25.625 C 23.546875 24.410156 22.476562 23.257812 20.027344 22.859375 C 16.816406 22.339844 14.617188 21.453125 12.683594 20.734375 C 10.195312 16.867188 10.417969 11.867188 13.265625 8.234375 C 15.429688 5.476562 18.738281 3.980469 22.128906 4.054688 Z M 22.167969 2.304688 C 18.234375 2.21875 14.386719 3.957031 11.878906 7.160156 C 8.980469 10.851562 8.417969 15.78125 10.269531 19.964844 C 9.574219 19.804688 8.875 19.710938 8.160156 19.734375 C 7.019531 19.773438 5.835938 20.089844 4.554688 20.835938 L 1.421875 22.664062 C 0.40625 23.246094 0 24.386719 0.0273438 25.457031 C 0.0507812 26.527344 0.421875 27.628906 0.96875 28.660156 C 1.519531 29.6875 2.25 30.640625 3.09375 31.34375 C 3.9375 32.046875 4.949219 32.554688 6.042969 32.371094 L 8.578125 31.953125 C 8.96875 31.886719 9.796875 31.980469 10.789062 32.222656 C 11.78125 32.464844 12.949219 32.828125 14.179688 33.175781 C 16.636719 33.867188 19.316406 34.570312 21.605469 33.914062 C 21.636719 33.910156 21.664062 33.898438 21.691406 33.886719 L 34.875 28.671875 C 35.800781 28.304688 36.460938 27.644531 36.730469 26.871094 C 37.003906 26.097656 36.894531 25.269531 36.527344 24.578125 C 35.785156 23.195312 33.933594 22.335938 31.867188 23.023438 L 31.476562 23.152344 C 33.398438 20.953125 34.542969 18.113281 34.582031 15.0625 C 34.648438 9.65625 31.226562 4.800781 26.085938 3.007812 C 24.800781 2.5625 23.480469 2.332031 22.167969 2.304688 Z M 22.167969 2.304688 " fill-opacity="1" fill-rule="nonzero"/></g><path fill="#000000" d="M 22.367188 8.09375 C 21.875 8.101562 21.488281 8.5 21.496094 8.988281 L 21.496094 10.496094 C 21.335938 10.507812 21.179688 10.527344 21.027344 10.558594 C 19.917969 10.777344 19.074219 11.421875 18.703125 12.265625 C 18.332031 13.105469 18.476562 14.132812 19.125 14.847656 C 19.769531 15.5625 20.84375 15.933594 22.160156 15.855469 C 23.101562 15.800781 23.519531 16.078125 23.691406 16.300781 C 23.863281 16.523438 23.871094 16.765625 23.714844 17.03125 C 23.582031 17.257812 23.320312 17.570312 22.699219 17.722656 C 22.082031 17.875 21.03125 17.859375 19.371094 17.179688 C 18.261719 16.671875 17.550781 18.378906 18.699219 18.796875 C 19.769531 19.238281 20.695312 19.460938 21.496094 19.527344 L 21.496094 20.816406 C 21.476562 22.007812 23.28125 22.007812 23.261719 20.816406 L 23.261719 19.382812 C 24.273438 19.09375 24.917969 18.460938 25.238281 17.917969 C 25.726562 17.09375 25.695312 16.019531 25.09375 15.234375 C 24.492188 14.453125 23.40625 14.027344 22.257812 14.09375 C 21.113281 14.160156 20.640625 13.902344 20.433594 13.675781 C 20.230469 13.449219 20.207031 13.226562 20.320312 12.964844 C 20.433594 12.707031 20.722656 12.40625 21.367188 12.28125 C 22.011719 12.15625 23.019531 12.230469 24.375 12.839844 C 25.472656 13.402344 26.253906 11.695312 25.101562 11.246094 C 24.445312 10.949219 23.835938 10.75 23.261719 10.628906 L 23.261719 8.988281 C 23.273438 8.492188 22.867188 8.085938 22.367188 8.09375 Z M 22.367188 8.09375 " fill-opacity="1" fill-rule="nonzero"/></svg>